<svg id="OBJECTS" xmlns="http://www.w3.org/2000/svg" viewBox="0 0 216.82 322.55"><title>robot</title><path d="M583.67,459.75c59.71,0,108.41-6.26,108.41-13.95s-48.7-13.95-108.41-13.95-108.41,6.27-108.41,13.95S524,459.75,583.67,459.75Z" transform="translate(-475.26 -137.2)" style="fill:#a5a8ae;fill-rule:evenodd"/><path d="M539.14,257.82c-8.54.93-18.84,5.72-27.58,15.76-6.52,7.49-12.29,18-15.84,32.11l15.88,4c2.85-11.33,7.32-19.58,12.32-25.32,5.76-6.61,12-9.71,17-10.25Z" transform="translate(-475.26 -137.2)" style="fill:#383540;fill-rule:evenodd"/><path d="M626.3,257.82c8.54.93,18.84,5.72,27.58,15.76,6.53,7.49,12.3,18,15.85,32.11l-15.89,4c-2.85-11.33-7.32-19.58-12.32-25.32-5.76-6.61-12-9.71-16.95-10.25Z" transform="translate(-475.26 -137.2)" style="fill:#383540;fill-rule:evenodd"/><path d="M573.67,340.29a16.34,16.34,0,0,0,16.92,0V191.82H573.67Z" transform="translate(-475.26 -137.2)" style="fill:#383540;fill-rule:evenodd"/><path d="M504.52,334.27a4.08,4.08,0,0,1,3.84-7.2c5.18,2.75,7.82,5.87,9.15,9a16.76,16.76,0,0,1,1,8.61,4.08,4.08,0,0,1-8.13-.73,9.91,9.91,0,0,0-.39-4.71C509.33,337.68,507.78,336,504.52,334.27Z" transform="translate(-475.26 -137.2)" style="fill:#383540;fill-rule:evenodd"/><path d="M494.52,329.05a4.09,4.09,0,1,1,7.91,2.05c-1.47,5.64-2.23,10.82-1.75,15.09.41,3.61,1.78,6.51,4.54,8.35a4.09,4.09,0,0,1-4.55,6.79c-5-3.33-7.44-8.26-8.12-14.25C491.94,341.76,492.82,335.6,494.52,329.05Z" transform="translate(-475.26 -137.2)" style="fill:#383540;fill-rule:evenodd"/><path d="M485.56,331.34a4.09,4.09,0,1,1,7.75,2.59,36.71,36.71,0,0,0-1.94,15.71A19.94,19.94,0,0,0,496,360.89a4.09,4.09,0,0,1-6.08,5.48,28.15,28.15,0,0,1-6.64-15.83A44.9,44.9,0,0,1,485.56,331.34Z" transform="translate(-475.26 -137.2)" style="fill:#383540;fill-rule:evenodd"/><path d="M515.52,325.75c1-9.68,5.55-23.79,3.36-33.13-1.64-7-9.66-10.51-14.71-8.86-17.6,5.75-23.21,33.67-24.86,49.76C476.8,358,514.58,334.92,515.52,325.75Z" transform="translate(-475.26 -137.2)" style="fill:#ced4d9;fill-rule:evenodd"/><path d="M479.54,338.93a19,19,0,0,0,6.27-.46A40.55,40.55,0,0,0,498.35,333c1.26-.82,2.47-1.57,3.66-2.32,6.18-3.86,11.94-7.46,14.54-11.67-.23,1.25-.44,2.47-.62,3.64-3.17,3.38-7.94,6.36-13,9.52l-3.65,2.3a42.36,42.36,0,0,1-13.09,5.72,22.19,22.19,0,0,1-6,.57A8.83,8.83,0,0,1,479.54,338.93Z" transform="translate(-475.26 -137.2)" style="fill:#a5a8ae;fill-rule:evenodd"/><path d="M515.57,287a18.36,18.36,0,0,1,.43,2.83,40.44,40.44,0,0,1-1.3,12.54c-2.24,9.23-6,22.21-7.14,25.95-.28,1-.54,1.39-1.4,1.14-.46-.14-.73-.12-.59-.59,0,0,4.8-16.11,7.43-26.92a38.9,38.9,0,0,0,1.25-12,12.07,12.07,0,0,0-1.2-4.83A13.38,13.38,0,0,1,515.57,287Z" transform="translate(-475.26 -137.2)" style="fill:#a5a8ae;fill-rule:evenodd"/><path d="M511.14,294.53a1.32,1.32,0,1,0-1.32-1.32A1.32,1.32,0,0,0,511.14,294.53Z" transform="translate(-475.26 -137.2)" style="fill:#a5a8ae;fill-rule:evenodd"/><path d="M508.81,302.43a1.32,1.32,0,1,0-1.31-1.32A1.32,1.32,0,0,0,508.81,302.43Z" transform="translate(-475.26 -137.2)" style="fill:#a5a8ae;fill-rule:evenodd"/><path d="M506.49,310.33a1.32,1.32,0,1,0-1.32-1.31A1.31,1.31,0,0,0,506.49,310.33Z" transform="translate(-475.26 -137.2)" style="fill:#a5a8ae;fill-rule:evenodd"/><path d="M504.16,318.23a1.32,1.32,0,1,0-1.31-1.31A1.32,1.32,0,0,0,504.16,318.23Z" transform="translate(-475.26 -137.2)" style="fill:#a5a8ae;fill-rule:evenodd"/><path d="M501.84,326.14a1.32,1.32,0,1,0-1.32-1.32A1.33,1.33,0,0,0,501.84,326.14Z" transform="translate(-475.26 -137.2)" style="fill:#a5a8ae;fill-rule:evenodd"/><path d="M560,321.65a70.77,70.77,0,0,0-12.46,14.78c-9.12,14.31-15.15,34.3-15.4,61.85l18.67.14c.21-23.68,5.1-40.39,12.47-52A50.71,50.71,0,0,1,575.69,333C576.62,332.27,570.8,312,560,321.65Z" transform="translate(-475.26 -137.2)" style="fill:#383540;fill-rule:evenodd"/><path d="M531.84,374.74c-10.61,24.32-23.83,64.1-17.27,64.1h42.94l-3-62.52C553.93,367.25,539,358.21,531.84,374.74Z" transform="translate(-475.26 -137.2)" style="fill:#a5a8ae;fill-rule:evenodd"/><path d="M546.8,387a.87.87,0,0,1,1.73.25c-2.32,16.11-4.17,33.69-4.18,33.74a.87.87,0,1,1-1.74-.18C542.62,420.78,544.47,403.13,546.8,387Z" transform="translate(-475.26 -137.2)" style="fill:#ced4d9;fill-rule:evenodd"/><path d="M543.33,368.61a8.28,8.28,0,0,1,6.3,3.14,11.38,11.38,0,0,1,2.52,7.28v.14a11.62,11.62,0,0,1-2.67,7.41,8.51,8.51,0,0,1-6.45,3.15H543a8.25,8.25,0,0,1-6.3-3.14,11.38,11.38,0,0,1-2.52-7.28v-.14a11.62,11.62,0,0,1,2.67-7.41,8.51,8.51,0,0,1,6.45-3.15Zm5,4.26a6.56,6.56,0,0,0-5-2.51h-.07a6.78,6.78,0,0,0-5.12,2.52,9.94,9.94,0,0,0-2.25,6.29v.13a9.68,9.68,0,0,0,2.11,6.17,6.58,6.58,0,0,0,5,2.5H543a6.75,6.75,0,0,0,5.12-2.52,9.94,9.94,0,0,0,2.25-6.29V379A9.65,9.65,0,0,0,548.29,372.87Z" transform="translate(-475.26 -137.2)" style="fill:#ced4d9;fill-rule:evenodd"/><path d="M535.18,384.39a.87.87,0,1,1,1.73.24c-2.32,16.12-4.17,33.7-4.18,33.75a.87.87,0,1,1-1.74-.18C531,418.15,532.85,400.5,535.18,384.39Z" transform="translate(-475.26 -137.2)" style="fill:#ced4d9;fill-rule:evenodd"/><path d="M534.15,415c16.57,0,31.77,15.75,32.8,25s-59,9.17-60,0S517.58,415,534.15,415Z" transform="translate(-475.26 -137.2)" style="fill:#ced4d9;fill-rule:evenodd"/><path d="M563.46,440.4a3.51,3.51,0,0,1,7-.77c.49,4.45-4,7.34-11.13,8.89a83.33,83.33,0,0,1-11.09,1.5c-4,.3-8.31.42-12.68.36-15.86-.23-31.36-3.53-32.08-10a3.51,3.51,0,1,1,7-.77c.26,2.29,12.5,3.57,25.2,3.75,4,.06,8.16-.06,12.07-.36a75.64,75.64,0,0,0,10.12-1.36C561.22,440.92,563.47,440.42,563.46,440.4Z" transform="translate(-475.26 -137.2)" style="fill:#383540;fill-rule:evenodd"/><path d="M536.2,418.85c9.58-.06,16.73,4.45,16.73,7s-7.15,2.2-16.73,2.25-18,.51-18-2.05S526.63,418.9,536.2,418.85Z" transform="translate(-475.26 -137.2)" style="fill:#fff;fill-rule:evenodd"/><path d="M540.92,395.54a1.63,1.63,0,1,0-1.62-1.62A1.63,1.63,0,0,0,540.92,395.54Z" transform="translate(-475.26 -137.2)" style="fill:#ced4d9;fill-rule:evenodd"/><path d="M539.92,403.21a1.63,1.63,0,1,0-1.63-1.62A1.63,1.63,0,0,0,539.92,403.21Z" transform="translate(-475.26 -137.2)" style="fill:#ced4d9;fill-rule:evenodd"/><path d="M538.75,411.27a1.63,1.63,0,1,0-1.62-1.63A1.63,1.63,0,0,0,538.75,411.27Z" transform="translate(-475.26 -137.2)" style="fill:#ced4d9;fill-rule:evenodd"/><path d="M557.33,321.16l16.58,15.78a4.72,4.72,0,0,1,.61,5.84h0c-4,6-11.55,6.93-16.72,2l-3.28-3.13c-5.17-4.92-6.11-13.88-2.08-19.91h0A3.11,3.11,0,0,1,557.33,321.16Z" transform="translate(-475.26 -137.2)" style="fill:#a5a8ae;fill-rule:evenodd"/><path d="M604.87,321.65a70.77,70.77,0,0,1,12.46,14.78c9.11,14.31,15.15,34.3,15.4,61.85l-18.67.14c-.21-23.68-5.1-40.39-12.47-52A50.71,50.71,0,0,0,589.21,333C588.28,332.27,594.1,312,604.87,321.65Z" transform="translate(-475.26 -137.2)" style="fill:#383540;fill-rule:evenodd"/><path d="M633.06,374.74c10.61,24.32,23.82,64.1,17.27,64.1h-43l3-62.52C611,367.25,625.85,358.21,633.06,374.74Z" transform="translate(-475.26 -137.2)" style="fill:#a5a8ae;fill-rule:evenodd"/><path d="M616.37,387.27a.87.87,0,1,1,1.73-.25c2.32,16.11,4.18,33.76,4.19,33.81a.88.88,0,0,1-.78,1,.88.88,0,0,1-1-.78C620.54,421,618.69,403.38,616.37,387.27Z" transform="translate(-475.26 -137.2)" style="fill:#ced4d9;fill-rule:evenodd"/><path d="M621.56,368.61h.09a8.51,8.51,0,0,1,6.45,3.15,11.68,11.68,0,0,1,2.67,7.41v.14a11.38,11.38,0,0,1-2.52,7.28,8.28,8.28,0,0,1-6.3,3.14h-.08a8.48,8.48,0,0,1-6.45-3.15,11.62,11.62,0,0,1-2.67-7.41V379a11.38,11.38,0,0,1,2.52-7.28,8.28,8.28,0,0,1,6.29-3.14Zm0,1.75a6.56,6.56,0,0,0-5,2.51A9.65,9.65,0,0,0,614.5,379v.13a9.89,9.89,0,0,0,2.25,6.29,6.75,6.75,0,0,0,5.12,2.52h.07a6.54,6.54,0,0,0,5-2.5A9.63,9.63,0,0,0,629,379.3v-.13a9.94,9.94,0,0,0-2.25-6.29,6.78,6.78,0,0,0-5.12-2.52Z" transform="translate(-475.26 -137.2)" style="fill:#ced4d9;fill-rule:evenodd"/><path d="M628,384.63a.87.87,0,1,1,1.73-.24c2.32,16.11,4.18,33.76,4.19,33.81a.87.87,0,0,1-1.74.18C632.16,418.33,630.31,400.75,628,384.63Z" transform="translate(-475.26 -137.2)" style="fill:#ced4d9;fill-rule:evenodd"/><path d="M630.75,415c-16.58,0-31.77,15.75-32.8,25s59,9.17,60,0S647.31,415,630.75,415Z" transform="translate(-475.26 -137.2)" style="fill:#ced4d9;fill-rule:evenodd"/><path d="M594.46,439.63a3.51,3.51,0,0,1,7,.77s2.25.52,5.64,1.26A75.81,75.81,0,0,0,617.2,443c3.91.3,8,.42,12.07.36,12.7-.18,24.94-1.46,25.2-3.75a3.51,3.51,0,1,1,7,.77c-.72,6.45-16.22,9.75-32.09,10-4.36.06-8.7-.06-12.67-.36a83.33,83.33,0,0,1-11.09-1.5C598.47,447,594,444.08,594.46,439.63Z" transform="translate(-475.26 -137.2)" style="fill:#383540;fill-rule:evenodd"/><path d="M628.7,418.85c-9.58-.06-16.73,4.45-16.73,7s7.15,2.2,16.73,2.25,17.95.51,17.95-2.05S638.27,418.9,628.7,418.85Z" transform="translate(-475.26 -137.2)" style="fill:#fff;fill-rule:evenodd"/><path d="M624,395.54a1.63,1.63,0,1,0-1.63-1.62A1.63,1.63,0,0,0,624,395.54Z" transform="translate(-475.26 -137.2)" style="fill:#ced4d9;fill-rule:evenodd"/><path d="M625,403.21a1.63,1.63,0,1,0-1.62-1.62A1.63,1.63,0,0,0,625,403.21Z" transform="translate(-475.26 -137.2)" style="fill:#ced4d9;fill-rule:evenodd"/><path d="M626.14,411.27a1.63,1.63,0,1,0-1.62-1.63A1.63,1.63,0,0,0,626.14,411.27Z" transform="translate(-475.26 -137.2)" style="fill:#ced4d9;fill-rule:evenodd"/><path d="M607.56,321.16,591,336.94a4.75,4.75,0,0,0-.61,5.84h0c4,6,11.55,6.93,16.73,2l3.28-3.13c5.17-4.92,6.11-13.88,2.08-19.91h0A3.12,3.12,0,0,0,607.56,321.16Z" transform="translate(-475.26 -137.2)" style="fill:#a5a8ae;fill-rule:evenodd"/><path d="M563.78,310.29h9.9c.06,0,.42,3.71,9,3.57,7.72-.13,7.76-3.59,8-3.59l10.51,0a10.1,10.1,0,0,1,10.07,10.07h0a28.41,28.41,0,0,1-28.32,28.33H582a28.41,28.41,0,0,1-28.32-28.33h0A10.1,10.1,0,0,1,563.78,310.29Z" transform="translate(-475.26 -137.2)" style="fill:#ced4d9;fill-rule:evenodd"/><path d="M597.88,310.29A13.49,13.49,0,0,1,594,315.2a19.08,19.08,0,0,1-23.12,0,13.41,13.41,0,0,1-3.87-4.91h2a12.2,12.2,0,0,0,3,3.55,17.38,17.38,0,0,0,20.92,0,12.09,12.09,0,0,0,3-3.56Z" transform="translate(-475.26 -137.2)" style="fill:#a5a8ae;fill-rule:evenodd"/><path d="M561.86,310.48c-1.2,6.66-.32,15.08,2.58,22.64,2.21,5.74,5.57,11,10.06,14.54a29.38,29.38,0,0,1-4.24-1.55,38.65,38.65,0,0,1-7.46-12.36A46.66,46.66,0,0,1,560,311,9.17,9.17,0,0,1,561.86,310.48Z" transform="translate(-475.26 -137.2)" style="fill:#a5a8ae;fill-rule:evenodd"/><path d="M604.91,311a46.66,46.66,0,0,1-2.81,22.71,38.49,38.49,0,0,1-7.47,12.36,28.83,28.83,0,0,1-4.23,1.55c4.49-3.56,7.85-8.8,10.06-14.54,2.9-7.56,3.78-16,2.58-22.64A9.85,9.85,0,0,1,604.91,311Z" transform="translate(-475.26 -137.2)" style="fill:#a5a8ae;fill-rule:evenodd"/><path d="M665.17,194.88c13.28-4.38,14.26-14.87,13.42-27.75-.25-3.87-1.57-15.19-2.76-18.5l-3.81,0c-1.86,5.57-1.8,32.61-9.06,32.93a6.73,6.73,0,0,0,2.21,13.28Z" transform="translate(-475.26 -137.2)" style="fill:#383540;fill-rule:evenodd"/><circle cx="199.07" cy="8.22" r="8.22" style="fill:#383540"/><path d="M499.73,194.88c-13.28-4.38-14.26-14.87-13.43-27.75.25-3.87,1.58-15.19,2.77-18.5l3.81,0c1.86,5.57,1.79,32.61,9.06,32.93a6.73,6.73,0,0,1-2.21,13.28Z" transform="translate(-475.26 -137.2)" style="fill:#383540;fill-rule:evenodd"/><circle cx="490.57" cy="145.43" r="8.22" transform="translate(-144.45 494.32) rotate(-88.32)" style="fill:#383540"/><path d="M525.82,219.1a29.5,29.5,0,1,0-29.51-29.5A29.55,29.55,0,0,0,525.82,219.1Z" transform="translate(-475.26 -137.2)" style="fill:#a5a8ae;fill-rule:evenodd"/><path d="M639.08,219.1a29.5,29.5,0,1,0-29.5-29.5A29.56,29.56,0,0,0,639.08,219.1Z" transform="translate(-475.26 -137.2)" style="fill:#a5a8ae;fill-rule:evenodd"/><rect x="41.4" y="4.24" width="131.58" height="96.31" rx="25.63" style="fill:#ced4d9"/><path d="M554.74,156.72a18.89,18.89,0,1,1-18.89,18.89,18.89,18.89,0,0,1,18.89-18.89Zm55.42,0a18.89,18.89,0,1,1-18.88,18.89A18.89,18.89,0,0,1,610.16,156.72Z" transform="translate(-475.26 -137.2)" style="fill:#383540;fill-rule:evenodd"/><path d="M554.74,188.05a12.44,12.44,0,1,0-12.45-12.44A12.47,12.47,0,0,0,554.74,188.05Z" transform="translate(-475.26 -137.2)" style="fill:#6db8da;fill-rule:evenodd"/><path d="M610.16,188.05a12.44,12.44,0,1,0-12.44-12.44A12.47,12.47,0,0,0,610.16,188.05Z" transform="translate(-475.26 -137.2)" style="fill:#6db8da;fill-rule:evenodd"/><path d="M558.32,175.45a4.79,4.79,0,1,0-4.78-4.79A4.8,4.8,0,0,0,558.32,175.45Z" transform="translate(-475.26 -137.2)" style="fill:#fff;fill-rule:evenodd"/><path d="M611.57,175.45a4.79,4.79,0,1,0-4.79-4.79A4.79,4.79,0,0,0,611.57,175.45Z" transform="translate(-475.26 -137.2)" style="fill:#fff;fill-rule:evenodd"/><path d="M582.45,194.88a64.36,64.36,0,0,1,17.17,2.31A58.09,58.09,0,0,1,615,203.93a49.61,49.61,0,0,1,12,10.5,41.13,41.13,0,0,1,7.29,13.13,38.76,38.76,0,0,1,1.14,4.19c.16.77.29,1.55.41,2.33-.54.32-1.09.63-1.65.91-.12-1-.28-1.93-.48-2.88a35.69,35.69,0,0,0-1.08-4,39.38,39.38,0,0,0-7-12.57h0A47.81,47.81,0,0,0,614,205.41a56.17,56.17,0,0,0-14.86-6.53,63.1,63.1,0,0,0-33.4,0,56.37,56.37,0,0,0-14.87,6.53,47.56,47.56,0,0,0-11.57,10.14,39.23,39.23,0,0,0-7,12.56,33.67,33.67,0,0,0-1.08,4c-.2.95-.36,1.92-.48,2.88-.56-.28-1.11-.59-1.65-.91.11-.78.25-1.56.41-2.33A39.87,39.87,0,0,1,538,214.43a49.63,49.63,0,0,1,12-10.5,58.09,58.09,0,0,1,15.33-6.74A64.36,64.36,0,0,1,582.45,194.88Z" transform="translate(-475.26 -137.2)" style="fill:#a5a8ae;fill-rule:evenodd"/><path d="M582.45,200.53c25.33,0,46.09,15.87,47.93,36a25.33,25.33,0,0,1-7.78,1.21H542.29a25.38,25.38,0,0,1-7.78-1.21C536.36,216.4,557.12,200.53,582.45,200.53Z" transform="translate(-475.26 -137.2)" style="fill:#383540;fill-rule:evenodd"/><path d="M594.86,213.07c0,3.77-2.43,6.82-12.41,6.82s-12.41-3-12.41-6.82C570,208.44,594.86,208.44,594.86,213.07Z" transform="translate(-475.26 -137.2)" style="fill:#fff;fill-rule:evenodd"/><path d="M539.52,143.34a3,3,0,0,0,0,6l85.88-.05a3,3,0,0,0,0-6Z" transform="translate(-475.26 -137.2)" style="fill:#fff;fill-rule:evenodd"/><path d="M506.32,167.45v44.29c-.61-.53-1.19-1.09-1.75-1.68V169.13C505.13,168.55,505.71,168,506.32,167.45Z" transform="translate(-475.26 -137.2)" style="fill:#ced4d9;fill-rule:evenodd"/><path d="M660.33,169.13v40.93c-.56.59-1.15,1.15-1.75,1.68V167.45C659.18,168,659.77,168.55,660.33,169.13Z" transform="translate(-475.26 -137.2)" style="fill:#ced4d9;fill-rule:evenodd"/><path d="M543.06,259.34v16.35a4.42,4.42,0,0,1-4.41,4.4h0a12.43,12.43,0,0,1-12.4-12.39v-.37a12.44,12.44,0,0,1,12.4-12.4h0A4.42,4.42,0,0,1,543.06,259.34Z" transform="translate(-475.26 -137.2)" style="fill:#a5a8ae;fill-rule:evenodd"/><path d="M622.39,259.34v16.35a4.41,4.41,0,0,0,4.4,4.4h0a12.43,12.43,0,0,0,12.4-12.39v-.37a12.44,12.44,0,0,0-12.4-12.4h0A4.42,4.42,0,0,0,622.39,259.34Z" transform="translate(-475.26 -137.2)" style="fill:#a5a8ae;fill-rule:evenodd"/><rect x="60.67" y="108.45" width="93.04" height="57.69" rx="15.36" style="fill:#ced4d9"/><path d="M582.45,307.74a33.24,33.24,0,1,0-33.24-33.24A33.3,33.3,0,0,0,582.45,307.74Z" transform="translate(-475.26 -137.2)" style="fill:#ced4d9;fill-rule:evenodd"/><path d="M535.93,273.43h19.71c0,.36,0,.71,0,1.07s0,.46,0,.69H535.93v-1.76Zm73.33,0H629v1.76H609.28c0-.23,0-.46,0-.69S609.28,273.79,609.26,273.43Z" transform="translate(-475.26 -137.2)" style="fill:#a5a8ae;fill-rule:evenodd"/><path d="M582.45,250.67a23.83,23.83,0,1,0,23.83,23.83A23.83,23.83,0,0,0,582.45,250.67Z" transform="translate(-475.26 -137.2)" style="fill:#383540;fill-rule:evenodd"/><path d="M582.45,255.81a18.69,18.69,0,1,0,18.69,18.69A18.69,18.69,0,0,0,582.45,255.81Z" transform="translate(-475.26 -137.2)" style="fill:#6db8da;fill-rule:evenodd"/><circle cx="107.19" cy="137.3" r="14.1" style="fill:#5391cc"/><path d="M589.36,259.59a7.8,7.8,0,1,0,7.8,7.8A7.8,7.8,0,0,0,589.36,259.59Z" transform="translate(-475.26 -137.2)" style="fill:#fff;fill-rule:evenodd"/><path d="M580.63,273.19a2.93,2.93,0,1,0,2.92,2.93A2.93,2.93,0,0,0,580.63,273.19Z" transform="translate(-475.26 -137.2)" style="fill:#fff;fill-rule:evenodd"/><path d="M582.45,248.46a26.05,26.05,0,1,0,18.41,7.63,26,26,0,0,0-18.41-7.63Zm-19.65,6.39a27.79,27.79,0,1,1-8.14,19.65A27.69,27.69,0,0,1,562.8,254.85Z" transform="translate(-475.26 -137.2)" style="fill:#a5a8ae;fill-rule:evenodd"/><path d="M550.51,247.51a81.74,81.74,0,0,1,13.18-.45,33.53,33.53,0,0,0-7.6,7.2c-8,.31-15.8.28-15.94-.58C539.91,252.11,544.62,248.47,550.51,247.51Z" transform="translate(-475.26 -137.2)" style="fill:#fff;fill-rule:evenodd"/><path d="M614.38,247.51a81.61,81.61,0,0,0-13.17-.45,33.53,33.53,0,0,1,7.6,7.2c8,.31,15.8.28,15.94-.58C625,252.11,620.28,248.47,614.38,247.51Z" transform="translate(-475.26 -137.2)" style="fill:#fff;fill-rule:evenodd"/><path d="M657.08,327.07a4.08,4.08,0,1,1,3.84,7.2c-3.26,1.74-4.8,3.41-5.46,5a9.66,9.66,0,0,0-.39,4.71,4.09,4.09,0,0,1-8.14.73,16.87,16.87,0,0,1,1-8.61C649.26,332.94,651.91,329.82,657.08,327.07Z" transform="translate(-475.26 -137.2)" style="fill:#383540;fill-rule:evenodd"/><path d="M663,331.1a4.09,4.09,0,1,1,7.91-2.05c1.71,6.55,2.58,12.71,2,18-.68,6-3.13,10.92-8.13,14.25a4.08,4.08,0,0,1-4.54-6.79c2.75-1.84,4.12-4.74,4.53-8.35C665.25,341.92,664.48,336.74,663,331.1Z" transform="translate(-475.26 -137.2)" style="fill:#383540;fill-rule:evenodd"/><path d="M672.14,333.93a4.09,4.09,0,1,1,7.75-2.59,45,45,0,0,1,2.32,19.2,28.14,28.14,0,0,1-6.63,15.83,4.1,4.1,0,0,1-6.09-5.48,20,20,0,0,0,4.59-11.25A37,37,0,0,0,672.14,333.93Z" transform="translate(-475.26 -137.2)" style="fill:#383540;fill-rule:evenodd"/><path d="M649.92,325.75c-1-9.68-5.55-23.79-3.35-33.13,1.64-7,9.65-10.51,14.7-8.86,17.6,5.75,23.22,33.67,24.86,49.76C688.64,358,650.86,334.92,649.92,325.75Z" transform="translate(-475.26 -137.2)" style="fill:#ced4d9;fill-rule:evenodd"/><path d="M685.9,338.93a19,19,0,0,1-6.27-.46A40.5,40.5,0,0,1,667.1,333c-1.27-.82-2.48-1.57-3.67-2.32-6.18-3.86-11.94-7.46-14.53-11.67.22,1.25.43,2.47.62,3.64,3.16,3.38,7.93,6.36,13,9.52,1.23.77,2.48,1.55,3.65,2.3a42.3,42.3,0,0,0,13.1,5.72,22.11,22.11,0,0,0,6,.57A8.28,8.28,0,0,0,685.9,338.93Z" transform="translate(-475.26 -137.2)" style="fill:#a5a8ae;fill-rule:evenodd"/><path d="M649.88,287a17.17,17.17,0,0,0-.44,2.83,40.5,40.5,0,0,0,1.31,12.54c2.24,9.23,6,22.21,7.13,25.95.29,1,.54,1.39,1.4,1.14.46-.14.73-.12.59-.59,0,0-4.8-16.11-7.42-26.92a38.65,38.65,0,0,1-1.26-12,12.24,12.24,0,0,1,1.2-4.83A13,13,0,0,0,649.88,287Z" transform="translate(-475.26 -137.2)" style="fill:#a5a8ae;fill-rule:evenodd"/><path d="M654.31,294.53a1.32,1.32,0,1,0-1.32-1.32A1.32,1.32,0,0,0,654.31,294.53Z" transform="translate(-475.26 -137.2)" style="fill:#a5a8ae;fill-rule:evenodd"/><path d="M656.63,302.43a1.32,1.32,0,1,0-1.31-1.32A1.32,1.32,0,0,0,656.63,302.43Z" transform="translate(-475.26 -137.2)" style="fill:#a5a8ae;fill-rule:evenodd"/><path d="M659,310.33a1.32,1.32,0,1,0-1.32-1.31A1.31,1.31,0,0,0,659,310.33Z" transform="translate(-475.26 -137.2)" style="fill:#a5a8ae;fill-rule:evenodd"/><path d="M661.28,318.23a1.32,1.32,0,1,0-1.32-1.31A1.32,1.32,0,0,0,661.28,318.23Z" transform="translate(-475.26 -137.2)" style="fill:#a5a8ae;fill-rule:evenodd"/><path d="M663.6,326.14a1.32,1.32,0,1,0-1.31-1.32A1.33,1.33,0,0,0,663.6,326.14Z" transform="translate(-475.26 -137.2)" style="fill:#a5a8ae;fill-rule:evenodd"/></svg>