<?xml version="1.0" encoding="utf-8"?>
<!-- Generator: Adobe Illustrator 24.0.1, SVG Export Plug-In . SVG Version: 6.00 Build 0)  -->
<svg version="1.1" id="b6c6e6a1-7972-47e7-be8d-743e88a832d8"
	 xmlns="http://www.w3.org/2000/svg" xmlns:xlink="http://www.w3.org/1999/xlink" x="0px" y="0px" viewBox="0 0 3000 3000"
	 style="enable-background:new 0 0 3000 3000;" xml:space="preserve">
<style type="text/css">
	.st0{opacity:0.1;fill:#7971EA;enable-background:new    ;}
	.st1{fill:#7971EA;}
	.st2{fill:#46455B;}
	.st3{fill:#3F3D56;}
	.st4{opacity:0.1;enable-background:new    ;}
	.st5{fill:#323444;}
	.st6{fill:#FBB3B2;}
	.st7{fill:#5B5583;}
	.st8{fill:#3C354C;}
	.st9{fill:#CBCEDA;}
	.st10{fill:#A8A8A8;}
	.st11{opacity:0.2;enable-background:new    ;}
</style>
<title>teaching</title>
<g>
	<path class="st0" d="M646,720.8h222.6c12.8,0,23.3,10.4,23.3,23.3v34.9c0,12.8-10.4,23.3-23.3,23.3H646
		c-12.8,0-23.3-10.4-23.3-23.3V744C622.8,731.2,633.2,720.8,646,720.8z"/>
	<path class="st0" d="M927.7,802.1h222.6c12.8,0,23.3,10.4,23.3,23.3v34.9c0,12.8-10.4,23.3-23.3,23.3H927.7
		c-12.8,0-23.3-10.4-23.3-23.3v-34.9C904.4,812.5,914.8,802.1,927.7,802.1z"/>
	<path class="st0" d="M1209.3,883.5H1432c12.8,0,23.3,10.4,23.3,23.3v34.9c0,12.8-10.4,23.3-23.3,23.3h-222.6
		c-12.8,0-23.3-10.4-23.3-23.3v-34.9C1186.1,893.9,1196.5,883.5,1209.3,883.5z"/>
	<path class="st0" d="M646,598.7h222.6c12.8,0,23.3,10.4,23.3,23.3v34.9c0,12.8-10.4,23.3-23.3,23.3H646
		c-12.8,0-23.3-10.4-23.3-23.3V622C622.8,609.1,633.2,598.7,646,598.7z"/>
	<path class="st0" d="M927.7,680.1h222.6c12.8,0,23.3,10.4,23.3,23.3v34.9c0,12.8-10.4,23.3-23.3,23.3H927.7
		c-12.8,0-23.3-10.4-23.3-23.3v-34.9C904.4,690.5,914.8,680.1,927.7,680.1z"/>
	<path class="st0" d="M1209.3,761.4H1432c12.8,0,23.3,10.4,23.3,23.3v34.9c0,12.8-10.4,23.3-23.3,23.3h-222.6
		c-12.8,0-23.3-10.4-23.3-23.3v-34.9C1186.1,771.9,1196.5,761.4,1209.3,761.4z"/>
	<path class="st0" d="M1522.3,720.8h222.6c12.8,0,23.3,10.4,23.3,23.3v34.9c0,12.8-10.4,23.3-23.3,23.3h-222.6
		c-12.8,0-23.3-10.4-23.3-23.3V744C1499,731.2,1509.4,720.8,1522.3,720.8z"/>
	<path class="st0" d="M1803.9,802.1h222.6c12.8,0,23.3,10.4,23.3,23.3v34.9c0,12.8-10.4,23.3-23.3,23.3h-222.6
		c-12.8,0-23.3-10.4-23.3-23.3v-34.9C1780.7,812.5,1791.1,802.1,1803.9,802.1z"/>
	<path class="st0" d="M2085.6,883.5h222.6c12.8,0,23.3,10.4,23.3,23.3v34.9c0,12.8-10.4,23.3-23.3,23.3h-222.6
		c-12.8,0-23.3-10.4-23.3-23.3v-34.9C2062.3,893.9,2072.7,883.5,2085.6,883.5z"/>
	<path class="st0" d="M1522.3,598.7h222.6c12.8,0,23.3,10.4,23.3,23.3v34.9c0,12.8-10.4,23.3-23.3,23.3h-222.6
		c-12.8,0-23.3-10.4-23.3-23.3V622C1499,609.1,1509.4,598.7,1522.3,598.7z"/>
	<path class="st0" d="M1803.9,680.1h222.6c12.8,0,23.3,10.4,23.3,23.3v34.9c0,12.8-10.4,23.3-23.3,23.3h-222.6
		c-12.8,0-23.3-10.4-23.3-23.3v-34.9C1780.7,690.5,1791.1,680.1,1803.9,680.1z"/>
	<path class="st0" d="M2085.6,761.4h222.6c12.8,0,23.3,10.4,23.3,23.3v34.9c0,12.8-10.4,23.3-23.3,23.3h-222.6
		c-12.8,0-23.3-10.4-23.3-23.3v-34.9C2062.3,771.9,2072.7,761.4,2085.6,761.4z"/>
	<path class="st0" d="M646,436h222.6c12.8,0,23.3,10.4,23.3,23.3v34.9c0,12.8-10.4,23.3-23.3,23.3H646c-12.8,0-23.3-10.4-23.3-23.3
		v-34.9C622.8,446.4,633.2,436,646,436z"/>
	<path class="st0" d="M927.7,517.4h222.6c12.8,0,23.3,10.4,23.3,23.3v34.9c0,12.8-10.4,23.3-23.3,23.3H927.7
		c-12.8,0-23.3-10.4-23.3-23.3v-34.9C904.4,527.8,914.8,517.4,927.7,517.4z"/>
	<path class="st0" d="M1209.3,598.7H1432c12.8,0,23.3,10.4,23.3,23.3v34.9c0,12.8-10.4,23.3-23.3,23.3h-222.6
		c-12.8,0-23.3-10.4-23.3-23.3V622C1186.1,609.1,1196.5,598.7,1209.3,598.7z"/>
	<path class="st0" d="M646,313.9h222.6c12.8,0,23.3,10.4,23.3,23.3v34.9c0,12.8-10.4,23.3-23.3,23.3H646
		c-12.8,0-23.3-10.4-23.3-23.3v-34.9C622.8,324.3,633.2,313.9,646,313.9z"/>
	<path class="st0" d="M927.7,395.3h222.6c12.8,0,23.3,10.4,23.3,23.3v34.9c0,12.8-10.4,23.3-23.3,23.3H927.7
		c-12.8,0-23.3-10.4-23.3-23.3v-34.9C904.4,405.7,914.8,395.3,927.7,395.3z"/>
	<path class="st0" d="M1209.3,476.7H1432c12.8,0,23.3,10.4,23.3,23.3v34.9c0,12.8-10.4,23.3-23.3,23.3h-222.6
		c-12.8,0-23.3-10.4-23.3-23.3v-34.9C1186.1,487.1,1196.5,476.7,1209.3,476.7z"/>
	<path class="st0" d="M1522.3,436h222.6c12.8,0,23.3,10.4,23.3,23.3v34.9c0,12.8-10.4,23.3-23.3,23.3h-222.6
		c-12.8,0-23.3-10.4-23.3-23.3v-34.9C1499,446.4,1509.4,436,1522.3,436z"/>
	<path class="st0" d="M1803.9,517.4h222.6c12.8,0,23.3,10.4,23.3,23.3v34.9c0,12.8-10.4,23.3-23.3,23.3h-222.6
		c-12.8,0-23.3-10.4-23.3-23.3v-34.9C1780.7,527.8,1791.1,517.4,1803.9,517.4z"/>
	<path class="st0" d="M2085.6,598.7h222.6c12.8,0,23.3,10.4,23.3,23.3v34.9c0,12.8-10.4,23.3-23.3,23.3h-222.6
		c-12.8,0-23.3-10.4-23.3-23.3V622C2062.3,609.1,2072.7,598.7,2085.6,598.7z"/>
	<path class="st0" d="M1522.3,313.9h222.6c12.8,0,23.3,10.4,23.3,23.3v34.9c0,12.8-10.4,23.3-23.3,23.3h-222.6
		c-12.8,0-23.3-10.4-23.3-23.3v-34.9C1499,324.3,1509.4,313.9,1522.3,313.9z"/>
	<path class="st0" d="M1803.9,395.3h222.6c12.8,0,23.3,10.4,23.3,23.3v34.9c0,12.8-10.4,23.3-23.3,23.3h-222.6
		c-12.8,0-23.3-10.4-23.3-23.3v-34.9C1780.7,405.7,1791.1,395.3,1803.9,395.3z"/>
	<path class="st0" d="M2085.6,476.7h222.6c12.8,0,23.3,10.4,23.3,23.3v34.9c0,12.8-10.4,23.3-23.3,23.3h-222.6
		c-12.8,0-23.3-10.4-23.3-23.3v-34.9C2062.3,487.1,2072.7,476.7,2085.6,476.7z"/>
	<path class="st0" d="M646,2169.7h222.6c12.8,0,23.3,10.4,23.3,23.3v34.9c0,12.8-10.4,23.3-23.3,23.3H646
		c-12.8,0-23.3-10.4-23.3-23.3V2193C622.8,2180.1,633.2,2169.7,646,2169.7z"/>
	<path class="st0" d="M927.7,2251.1h222.6c12.8,0,23.3,10.4,23.3,23.3v34.9c0,12.8-10.4,23.3-23.3,23.3H927.7
		c-12.8,0-23.3-10.4-23.3-23.3v-34.9C904.4,2261.5,914.8,2251.1,927.7,2251.1z"/>
	<path class="st0" d="M1209.3,2332.4H1432c12.8,0,23.3,10.4,23.3,23.3v34.9c0,12.8-10.4,23.3-23.3,23.3h-222.6
		c-12.8,0-23.3-10.4-23.3-23.3v-34.9C1186.1,2342.8,1196.5,2332.4,1209.3,2332.4z"/>
	<path class="st0" d="M646,2047.7h222.6c12.8,0,23.3,10.4,23.3,23.3v34.9c0,12.8-10.4,23.3-23.3,23.3H646
		c-12.8,0-23.3-10.4-23.3-23.3v-34.9C622.8,2058.1,633.2,2047.7,646,2047.7z"/>
	<path class="st0" d="M927.7,2129h222.6c12.8,0,23.3,10.4,23.3,23.3v34.9c0,12.8-10.4,23.3-23.3,23.3H927.7
		c-12.8,0-23.3-10.4-23.3-23.3v-34.9C904.4,2139.4,914.8,2129,927.7,2129z"/>
	<path class="st0" d="M1209.3,2210.4H1432c12.8,0,23.3,10.4,23.3,23.3v34.9c0,12.8-10.4,23.3-23.3,23.3h-222.6
		c-12.8,0-23.3-10.4-23.3-23.3v-34.9C1186.1,2220.8,1196.5,2210.4,1209.3,2210.4z"/>
	<path class="st0" d="M1522.3,2169.7h222.6c12.8,0,23.3,10.4,23.3,23.3v34.9c0,12.8-10.4,23.3-23.3,23.3h-222.6
		c-12.8,0-23.3-10.4-23.3-23.3V2193C1499,2180.1,1509.4,2169.7,1522.3,2169.7z"/>
	<path class="st0" d="M1803.9,2251.1h222.6c12.8,0,23.3,10.4,23.3,23.3v34.9c0,12.8-10.4,23.3-23.3,23.3h-222.6
		c-12.8,0-23.3-10.4-23.3-23.3v-34.9C1780.7,2261.5,1791.1,2251.1,1803.9,2251.1z"/>
	<path class="st0" d="M2085.6,2332.4h222.6c12.8,0,23.3,10.4,23.3,23.3v34.9c0,12.8-10.4,23.3-23.3,23.3h-222.6
		c-12.8,0-23.3-10.4-23.3-23.3v-34.9C2062.3,2342.8,2072.7,2332.4,2085.6,2332.4z"/>
	<path class="st0" d="M1522.3,2047.7h222.6c12.8,0,23.3,10.4,23.3,23.3v34.9c0,12.8-10.4,23.3-23.3,23.3h-222.6
		c-12.8,0-23.3-10.4-23.3-23.3v-34.9C1499,2058.1,1509.4,2047.7,1522.3,2047.7z"/>
	<path class="st0" d="M1803.9,2129h222.6c12.8,0,23.3,10.4,23.3,23.3v34.9c0,12.8-10.4,23.3-23.3,23.3h-222.6
		c-12.8,0-23.3-10.4-23.3-23.3v-34.9C1780.7,2139.4,1791.1,2129,1803.9,2129z"/>
	<path class="st0" d="M2085.6,2210.4h222.6c12.8,0,23.3,10.4,23.3,23.3v34.9c0,12.8-10.4,23.3-23.3,23.3h-222.6
		c-12.8,0-23.3-10.4-23.3-23.3v-34.9C2062.3,2220.8,2072.7,2210.4,2085.6,2210.4z"/>
	<path class="st0" d="M646,1884.9h222.6c12.8,0,23.3,10.4,23.3,23.3v34.9c0,12.8-10.4,23.3-23.3,23.3H646
		c-12.8,0-23.3-10.4-23.3-23.3v-34.9C622.8,1895.3,633.2,1884.9,646,1884.9z"/>
	<path class="st0" d="M927.7,1966.3h222.6c12.8,0,23.3,10.4,23.3,23.3v34.9c0,12.8-10.4,23.3-23.3,23.3H927.7
		c-12.8,0-23.3-10.4-23.3-23.3v-34.9C904.4,1976.7,914.8,1966.3,927.7,1966.3z"/>
	<path class="st0" d="M1209.3,2047.7H1432c12.8,0,23.3,10.4,23.3,23.3v34.9c0,12.8-10.4,23.3-23.3,23.3h-222.6
		c-12.8,0-23.3-10.4-23.3-23.3v-34.9C1186.1,2058.1,1196.5,2047.7,1209.3,2047.7z"/>
	<path class="st0" d="M646,1762.9h222.6c12.8,0,23.3,10.4,23.3,23.3v34.9c0,12.8-10.4,23.3-23.3,23.3H646
		c-12.8,0-23.3-10.4-23.3-23.3v-34.9C622.8,1773.3,633.2,1762.9,646,1762.9z"/>
	<path class="st0" d="M927.7,1844.2h222.6c12.8,0,23.3,10.4,23.3,23.3v34.9c0,12.8-10.4,23.3-23.3,23.3H927.7
		c-12.8,0-23.3-10.4-23.3-23.3v-34.9C904.4,1854.6,914.8,1844.2,927.7,1844.2z"/>
	<path class="st0" d="M1209.3,1925.6H1432c12.8,0,23.3,10.4,23.3,23.3v34.9c0,12.8-10.4,23.3-23.3,23.3h-222.6
		c-12.8,0-23.3-10.4-23.3-23.3v-34.9C1186.1,1936,1196.5,1925.6,1209.3,1925.6z"/>
	<path class="st0" d="M1522.3,1884.9h222.6c12.8,0,23.3,10.4,23.3,23.3v34.9c0,12.8-10.4,23.3-23.3,23.3h-222.6
		c-12.8,0-23.3-10.4-23.3-23.3v-34.9C1499,1895.3,1509.4,1884.9,1522.3,1884.9z"/>
	<path class="st0" d="M1803.9,1966.3h222.6c12.8,0,23.3,10.4,23.3,23.3v34.9c0,12.8-10.4,23.3-23.3,23.3h-222.6
		c-12.8,0-23.3-10.4-23.3-23.3v-34.9C1780.7,1976.7,1791.1,1966.3,1803.9,1966.3z"/>
	<path class="st0" d="M2085.6,2047.7h222.6c12.8,0,23.3,10.4,23.3,23.3v34.9c0,12.8-10.4,23.3-23.3,23.3h-222.6
		c-12.8,0-23.3-10.4-23.3-23.3v-34.9C2062.3,2058.1,2072.7,2047.7,2085.6,2047.7z"/>
	<path class="st0" d="M1522.3,1762.9h222.6c12.8,0,23.3,10.4,23.3,23.3v34.9c0,12.8-10.4,23.3-23.3,23.3h-222.6
		c-12.8,0-23.3-10.4-23.3-23.3v-34.9C1499,1773.3,1509.4,1762.9,1522.3,1762.9z"/>
	<path class="st0" d="M1803.9,1844.2h222.6c12.8,0,23.3,10.4,23.3,23.3v34.9c0,12.8-10.4,23.3-23.3,23.3h-222.6
		c-12.8,0-23.3-10.4-23.3-23.3v-34.9C1780.7,1854.6,1791.1,1844.2,1803.9,1844.2z"/>
	<path class="st0" d="M2085.6,1925.6h222.6c12.8,0,23.3,10.4,23.3,23.3v34.9c0,12.8-10.4,23.3-23.3,23.3h-222.6
		c-12.8,0-23.3-10.4-23.3-23.3v-34.9C2062.3,1936,2072.7,1925.6,2085.6,1925.6z"/>
	<ellipse class="st0" cx="1525.6" cy="2573.4" rx="1372.3" ry="112.7"/>
	<path class="st1" d="M281,898.5c129.4,56.1,203.8,172.1,203.8,172.1s-135.5,25-264.9-31C90.4,983.6,16.1,867.5,16.1,867.5
		S151.6,842.4,281,898.5z"/>
	<path class="st1" d="M678.1,683.2c40-65.7,108.2-97,108.2-97s3.1,74.9-36.8,140.4s-108.2,96.8-108.2,96.8S638.1,748.6,678.1,683.2z
		"/>
	<path class="st2" d="M383.9,753.5C412.5,855.7,491.4,923,491.4,923s32.5-98.5,3.9-200.7S387.7,552.8,387.7,552.8
		S355.2,651.3,383.9,753.5z"/>
	<path class="st3" d="M410.6,748.9h2236.2c12.5,0,22.6,10.1,22.6,22.6v1097.1c0,12.5-10.1,22.6-22.6,22.6H410.6
		c-12.5,0-22.6-10.1-22.6-22.6V771.5C388.1,759,398.2,748.9,410.6,748.9z"/>
	<path class="st4" d="M388.1,1822.3h2281.4l0,0v46.3c0,12.5-10.1,22.6-22.6,22.6l0,0H410.6c-12.5,0-22.6-10.1-22.6-22.6V1822.3
		L388.1,1822.3z"/>
	<path class="st1" d="M618.1,1737.8h153.3c4.3,0,7.8,3.5,7.8,7.8v68.8c0,4.3-3.5,7.8-7.8,7.8H618.1c-4.3,0-7.8-3.5-7.8-7.8v-68.8
		C610.3,1741.3,613.8,1737.8,618.1,1737.8z"/>
	<path class="st1" d="M832.5,1809.8h103.3c3.5,0,6.3,2.8,6.3,6.3l0,0c0,3.5-2.8,6.3-6.3,6.3H832.5c-3.5,0-6.3-2.8-6.3-6.3l0,0
		C826.2,1812.6,829,1809.8,832.5,1809.8z"/>
	<path class="st1" d="M723.4,972.3c82.6,15.2,166.8,0,249.1-10.3l249.9-31.3c10.1-1.3,24.8-7.3,30.8,5c3.3,6.9,1.1,21.9,1.3,29.9
		c0.7,21.9,0.6,43.8,0,65.7c-1.1,41.9-4.2,83.7-8.1,125.3c-7.6,81.6-18.4,162.7-23.8,244.6c-2.8,41.7-4.1,83.5-2.9,125.2
		c0.3,10,0.7,19.9,1.3,29.8c0.7,11.1,5.6,27.6-6.5,35c-6.9,4.3-20.5,4-28.4,5.3c-12.5,2-25,3.5-37.8,4.8
		c-84.2,8.4-169.4,4.9-253.9,4.4l-255.1-1.3l-62.2-0.3c-5.6,0-25.9,3.4-29.4-3.3c-1.5-2.8,2.4-16.2,3.1-19.7c1-5.9,2-11.8,3.1-17.6
		c7.3-41.2,15.8-82.1,24.5-122.9c18.6-87.6,37.6-175.7,45.2-265.2c3.8-44.9,1.3-90.2,5.9-135c2.2-20.8,4.7-67.3,32.4-69.1
		c23.5-1.6,47.6,0,71.2,0c2.6,0,4.7-2.1,4.7-4.7s-2.1-4.7-4.7-4.7c-22.2,0-44.5-0.6-66.7-0.2c-14.8,0.3-25,3.8-32.1,17.4
		c-18,34.9-16.1,81.4-16.7,119.4c-1.3,91.1-15.3,180.3-33.5,269.4c-9.2,44.8-19.1,89.5-28.2,134.4c-4.3,21.4-8.4,42.9-12.1,64.5
		c-1.8,10.3-10.6,32.9-2.8,42.3c7.8,9.4,31.8,4.3,42.5,4.4l74.7,0.4l143.1,0.8c92.4,0.5,185.2,3.1,277.6,0.4
		c44.1-1.3,90.8-3.1,133.7-13.7c12.8-3.1,19-9,19.5-22.7c0.8-21.2-2.7-43-3.1-64.2c-3.1-181.8,39.6-361.1,35.2-543
		c-0.3-12.4,4.4-43.5-9.1-51c-6.1-3.4-14-1.5-20.3-0.8c-12.2,1.4-24.4,3.1-36.6,4.6l-158.5,19.8c-50.7,6.3-101.3,13-152.1,18.8
		c-53.7,6.3-108,10-161.5,0c-5.9-1.1-8.4,7.9-2.5,9L723.4,972.3z"/>
	<path class="st1" d="M623.8,1082.9l625.3-30.7c6-0.3,6.1-9.7,0-9.4l-625.3,30.7C617.7,1073.8,617.7,1083.2,623.8,1082.9z"/>
	<path class="st1" d="M816.4,1005.5c-5.9,6.3-5.6,16.2,0.6,22.1c1.4,1.3,3.1,2.4,4.9,3.1c8.4,3.8,18.3,0.6,26.7-1.5
		c12.5-3.1,25-5.9,37.9-8.2c28-5,56.3-7.6,84.8-7.9c13-0.2,25.8,0.4,38.8,1c9.4,0.4,19.5,1.1,27.4-4.7c9.1-6.6,12-19.6,3.1-27.7
		c-12.5-11.4-39.5-4.8-54-3.6c-52.5,4.4-104.6,12.1-156,23.3c-5.9,1.3-3.4,10.3,2.5,9c33.9-7.3,68.1-13.2,102.6-17.7
		c16.9-2.1,33.9-3.8,50.9-5.3c8-0.7,16-1.3,24-1.7c3.1-0.2,6.4-0.5,9.6-0.4c9.9,0.2,11.1-1.6,5.1,10.4c-5.3,10.6-3.6,9.4-12.8,9
		c-3.9,0-7.8-0.4-11.6-0.6c-7.9-0.3-15.9-0.5-23.8-0.5c-16.9,0-33.8,0.8-50.6,2.4c-14.3,1.4-28.5,3.3-42.6,5.8
		c-8.8,1.6-17.6,3.4-26.3,5.4c-3.8,0.9-7.7,1.8-11.6,2.8c-1.8,0.5-3.7,0.9-5.6,1.4c-6.8,2.4-12.7-0.8-17.5-9.4
		c4.2-4.4-2.4-11-6.6-6.6L816.4,1005.5z"/>
	<path class="st1" d="M929.8,1139.1c-45.3-1.8-94.2,10.5-124,46.9c-23.3,28.5-36.6,77.4-11.9,109.5c26.6,34.4,84.8,28.4,120,13.7
		c37.2-15.6,77.9-47.9,89-88.3c13.9-50.4-31.3-88.5-78.4-89.1c-6,0-6,9.4,0,9.4c26.9,0.3,53.2,11.8,65.7,36.8
		c13.1,26.3,1.8,54-15.6,75.1c-28,33.6-71.7,58.9-116.3,58.2c-26.8-0.4-56.3-9.6-64.6-37.8c-6.8-22.9-1.6-47.9,10.3-68.2
		c25.7-43.8,78.1-58.6,126.1-56.8c6,0.2,6-9.2,0-9.4L929.8,1139.1z"/>
	<path class="st1" d="M884.8,1208.6c-6.3-2.3-13.3,0.9-15.7,7.2c-0.6,1.7-0.9,3.5-0.7,5.3c0.9,12.2,14.4,15.6,24.5,14.9
		c8.7-0.8,18.9-4,15.9-14.9c-1.1-3.9-3.9-7.1-7.6-8.8c-2.8-1.1-5.8-1.5-8.8-1.1c-1.2,0-11.8,3.9-7.3-0.8l-7.4-1
		c1.7,1.6,2.5,3.9,2.3,6.3c0,2.6,2.2,4.7,4.8,4.6c0.8,0,1.6-0.2,2.2-0.6c3.2-1.3,6.9,0.2,8.2,3.4c0.5,1.3,0.6,2.6,0.3,4
		c-0.6,2.5,1,5.1,3.5,5.7c1.9,0.5,4-0.4,5-2c3.1-5.6,6.9-16.8,2.2-22.7c-3.1-4-9.2-2.8-12.9-0.5c-2.3,1.6-4.5,3.5-6.4,5.5
		c-3.8,3.3-6.3,4.9-4.9-1.5c2.3-11.7,13.5-21,23.7-25.6l-6.9-5.3c-3.6,13.6-10.1,26.2-18.9,37.1l8,3.3c-0.5-8.8,4.6-17,12.8-20.4
		H896l2.4,4c-0.9,5.9,8.1,8.4,9,2.5c1.2-7.7-3.7-17.8-12.7-14c-10.8,4.5-16.4,16.9-16.2,27.9c0,3.8,5.3,6.7,8,3.3
		c10-12.1,17.2-26.2,21.3-41.3c0.6-2.6-0.9-5.1-3.5-5.7c-1.2-0.3-2.4-0.1-3.4,0.5c-9.4,4.2-17.3,11.1-22.8,19.8
		c-3.8,6.3-8.6,16-4.7,23.2c2.7,4.8,8.7,6.6,13.5,3.9c0,0,0.1,0,0.1-0.1c2.9-1.7,5.5-3.8,7.9-6.3c1.2-1,2.4-2.8,4-3.1
		c1.4-0.9,1.3-0.4-0.2,1.7c0,3.2-1,6.4-2.7,9.1l8.6,3.6c2.2-8.4-2.8-16.9-11.1-19.1c-3.7-1-7.7-0.6-11.1,1.2l7.1,4.1
		c0.1-4-1.1-7.9-3.5-11c-1.4-2.2-4.3-3-6.5-1.6c-0.3,0.2-0.6,0.4-0.8,0.6c-4.8,5-5.7,13.6,0.3,18.2c4.5,3.4,6.7,0,11.6-0.8
		c16.7-2.2,6.9,5.4,1.1,5.6c-2.6,0.3-5.3,0.1-7.9-0.6c-6.5-2.2-6.9-5.1-1.2-8.5c5.6,2.3,8-6.8,2.5-9L884.8,1208.6z"/>
	<path class="st1" d="M877.2,1225.8c3.8,12.5-12,16.6-19.6,21c-5.3,3-9.9,7-13.6,11.9c-7.9,10.6-10.8,24-13.4,36.7
		c-1.2,5.9,7.9,8.4,9.1,2.5c1.4-9.3,4.1-18.4,7.9-27c5.6-11.2,13.7-15,24.2-20.7s18.1-14.7,14.4-26.8
		C884.5,1217.5,875.5,1220,877.2,1225.8L877.2,1225.8z"/>
	<path class="st1" d="M892.9,1219.5c-4.6,0.6-8,4.7-7.8,9.4c0,3.7,2.5,6.1,4.2,9.1c4,6.1,7.1,12.7,9.1,19.7c1.5,6.7,3,18.8-0.5,25
		c-6.5,11.6-18.2,9.4-28.2,9.4c-9.4,0-16.6,3.1-16.3-10c0.2-7.4,5.3-14.8,9.4-20.6l-8.6-1.1c1.8,9.6,2.8,19.3,2.8,29
		c0,4.3,6.7,6.8,8.7,2.3c5-10.6,9-21.6,11.9-33l-9.2-1.3l1.6,23.8c0.1,2.6,2.2,4.7,4.8,4.6c1.6,0,3-0.9,3.9-2.2
		c1.1-1.2,1.9-2.7,2.3-4.2c0.3-1.5-2.6-11.4-3.7-7.9l9.2,1.3l0.7-22.6l-9.4,1.3c2,6.4,2.6,13.1,1.8,19.7c-0.6,5.2,8.2,6.4,9.4,1.3
		l5.9-30.4l-8.6,1.1c2,4.2,2.6,9,1.6,13.5c-0.7,6,8.7,5.9,9.4,0c0.8-6.2-0.2-12.6-2.9-18.2c-1.4-2.2-4.3-2.9-6.5-1.6
		c-1,0.6-1.8,1.6-2.1,2.7l-5.9,30.4l9.2,1.3c0.9-7.5,0.2-15-2.1-22.2c-0.7-2.5-3.3-3.9-5.8-3.2c-2,0.6-3.3,2.4-3.4,4.4l-0.7,22.6
		c0,5.5,7.6,6.3,9.2,1.3l0.5-1.5c0.4-1.6,0-3.4-1.2-4.6c-9.7-10.6-11.7,6.3-15.1,10.9l8.8,2.4l-1.6-23.8c-0.3-5.1-7.9-6.6-9.2-1.3
		c-2.6,10.6-6.3,20.9-11,30.8l8.8,2.4c-0.1-10.6-1.1-21.1-3.1-31.5c-0.8-4.3-6.5-4.1-8.6-1.1c-6.3,9-17.1,28.7-8.7,39.5
		c7.3,9.4,30.2,5.8,40,5.2c15.5-0.9,21.1-10.7,22.8-25.3c0.8-7,0.4-14.1-1.2-20.9c-0.8-3.7-9.4-27.1-12-26.6
		c5.9-1.1,3.4-10.2-2.5-9.1L892.9,1219.5z"/>
	<path class="st1" d="M874.7,1240.6l-25.6,33.8l8.1,4.7L876,1252l-8.6-3.6l-9.4,35.7c-0.6,2.5,1,5.1,3.5,5.7c1.9,0.5,4-0.4,5-2
		c4.3-7.1,9-13.8,14.3-20.1l-7.8-4.6c-2.1,8.1-6.2,15.5-11.8,21.7l7.9,4.6c0.5-4.3,1.6-8.5,3.4-12.5c2.4-5.4-5.2-10.2-8.1-4.8
		c-2.6,5-5.7,9.7-9,14.2l8.6,1.1l1.9-8.9l-8.6-1.1l1.4,7.8c0.7,2.5,3.3,4,5.8,3.2c0.8-0.2,1.4-0.6,2-1.2
		c7.9-8.2,14.3-17.8,18.8-28.3h-8.1c2.1,3.9,3.6,8.1,4.4,12.5c1.1,5.6,8.6,3.5,9.2-1.3c1.3-10.5,2-21,2.1-31.6h-9.4v19.7
		c0,5.1,8.4,6.6,9.2,1.3c0.6-4.7,2.2-9.3,4.6-13.5h-8.2c2,3.2,3.1,6.9,3.1,10.6c0,2.6,2.1,4.7,4.7,4.7s4.7-2.1,4.7-4.7l1.2-6.3h-9
		c0.9,5.5,4.3,36.7-7.9,33.1c-2.1-0.5-2.7-0.4-1.8,0.3l2.8-5.9l6.5-13.9l-8.8-2.4c0.6,6.4,1.2,15.6-2.7,21.2
		c-3.1,4.5-12.8,6.3-17.7,3.6c-3.2-2.3-6-5.2-8.2-8.6l-6.4,6.3c5.2,3.8,13.6,13.1,20.3,13.6c5.1,0.4,9.4-3.8,12.7-7.2
		c10.4-10.7,15.9-25.2,15.3-40.2c0-2.6-2.1-4.7-4.7-4.7c-2.6,0-4.7,2.1-4.7,4.7v10.7c0,2.6,2.1,4.7,4.7,4.7c2.6,0,4.7-2.1,4.7-4.7
		v-26.3c0-2.6-2.1-4.7-4.7-4.7c-2.6,0-4.7,2.1-4.7,4.7c0,6.3-0.6,12.6-1.6,18.8l9.2,1.3c-0.7-7.5-1.1-15-1-22.5
		c0-2.6-2.2-4.7-4.8-4.6c-2.1,0-3.9,1.4-4.4,3.4c-1.4,6-3.1,11.9-4.8,17.7l8.6-1.1l-0.7-2.5c-0.4-6-9.8-6-9.4,0
		c0.1,2.5,0.8,5,1.9,7.3c1.8,3.8,7.5,2.5,8.6-1.1c1.8-5.9,3.4-11.8,4.8-17.7l-9.2-1.3c0,7.5,0.3,15,1,22.5c0.5,4.8,8.2,6.9,9.2,1.3
		c1.2-7.1,1.9-14.2,2-21.4h-9.4v26.3h9.4v-10.7h-9.4c0.6,11.8-3.5,23.4-11.4,32.2c-1.2,1.4-2.5,2.7-3.9,3.9c-2.2,2.1-4.3,1.8-6-1
		c-4.4-1.8-9-6.6-12.9-9.4c-3.9-2.8-9.2,2.7-6.4,6.4c7.2,9.6,17.9,20.2,31.3,15.6c14.1-5,16-24,14.9-36.5c-0.3-4.2-6.6-7-8.7-2.3
		c-3.1,6.6-6.3,13.2-9.4,19.8c-1.1,2.3-3.1,5.5-2.8,8.3c1,7,9.6,5.9,14.8,5.5c20.4-1.5,17.1-30.4,14.8-44.9c-0.8-4.8-7.8-4.1-9,0
		c-1,2.9-1.5,5.9-1.5,8.9h9.4c-0.3-5.4-1.8-10.6-4.4-15.4c-1.3-2.2-4.2-3-6.5-1.6c-0.7,0.4-1.2,1-1.6,1.6
		c-2.8,4.8-4.7,10.1-5.6,15.6l9.4,1.3v-19.7c0-2.6-2.1-4.7-4.7-4.7s-4.7,2.1-4.7,4.7c0,10.6-0.7,21.1-2.1,31.6l9.2-1.3
		c-1.1-5.1-2.9-10-5.4-14.6c-1.3-2.2-4.2-3-6.5-1.6c-0.7,0.4-1.2,1-1.6,1.6c-4.1,9.8-9.9,18.8-17.3,26.4l7.9,2.1l-1.4-7.8
		c-0.7-4.2-6.6-4.3-8.6-1.1c-3.1,4.8-4.2,10.6-2.8,16.1c0.8,4.4,6.4,4,8.6,1.1c3.4-4.5,6.4-9.2,9-14.2l-8.1-4.8
		c-2.2,4.7-3.6,9.6-4.4,14.7c-0.6,4.1,4.3,8.4,7.9,4.6c6.7-7.4,11.6-16.2,14.2-25.8c1.2-4.3-4.7-8.3-7.9-4.6
		c-5.8,6.9-11,14.2-15.6,21.9l8.6,3.6l9.5-35.6c0.6-2.5-1-5.1-3.5-5.7c-1.9-0.5-4,0.4-5,2l-18.8,27.2c-3.5,5,4.5,9.4,8.1,4.7
		l25.5-33.8c3.6-4.8-4.5-9.4-8.1-4.8L874.7,1240.6z"/>
	<path class="st1" d="M1274,1353.5c37.6-23,67.4-57.2,100.6-85.9c36-31.1,73.8-60,112.7-87.4c75.5-53.2,154.9-100.8,234.1-148.3
		c2.2-1.4,2.8-4.3,1.5-6.5c-1.3-2.1-4-2.8-6.2-1.6c-79.3,47.5-158.6,95-234.2,148.3c-35.6,25-70.4,51.6-103.8,79.7
		c-36.3,30.7-68.6,68.8-109.5,93.6c-5.2,3.1-0.4,11.3,4.7,8.1H1274z"/>
	<path class="st1" d="M1842.5,886.2c-40.7,4.1-84.5,14.5-109.5,50.1c-21.6,30.6-21.2,84-0.8,115.4c23.1,35.7,70.2,37,106.8,25.4
		c36.6-11.5,74.5-31.8,74.2-75.5c-0.2-23.5-8.7-47.9-18-69.2c-8.1-18.4-22.4-34.4-44-32.4c-6,0.6-6,10,0,9.4
		c29-2.7,38.3,31.8,45.2,53.5c6.3,20.3,12,44.3,2.2,64.5c-9.8,20.2-33.5,30.5-53.8,37.9c-21.9,7.9-46,12.8-68.8,6.3
		c-45.3-12.7-57.8-70.1-44.8-110.8c15-46.9,68.2-60.7,111.6-65.1c5.9-0.6,6-10,0-9.4L1842.5,886.2z"/>
	<path class="st1" d="M1905.1,1249.2c-40.7,4.1-84.5,14.5-109.5,50.1c-21.6,30.6-21.2,84-0.8,115.4c23.1,35.7,70.2,37,106.8,25.4
		c36.6-11.5,74.5-31.8,74.2-75.5c-0.2-23.5-8.7-47.9-18-69.2c-8.1-18.4-22.4-34.4-44-32.4c-6,0.6-6,10,0,9.4
		c29-2.7,38.3,31.8,45.2,53.5c6.3,20.3,12,44.3,2.2,64.5c-9.8,20.2-33.5,30.5-53.8,37.9c-21.9,7.9-46,12.8-68.8,6.3
		c-45.3-12.7-57.8-70.1-44.8-110.8c15-46.9,68.2-60.7,111.6-65.1c5.9-0.6,6-10,0-9.4H1905.1z"/>
	<path class="st1" d="M1781.2,977.6l29.6,33.8c1.9,1.8,4.9,1.8,6.7-0.1c0.5-0.6,0.9-1.2,1.1-2c6.3-16.5,5.1-33.5,6.5-50.8
		c1.6-17.9,6.1-35.4,13.3-51.9c14.4-33.4,38.9-61.4,70-80.3c5.2-3.1,0.4-11.3-4.7-8.1c-30.7,18.5-55.3,45.5-70.8,77.8
		c-7.6,15.7-12.9,32.4-15.6,49.7c-3.1,20.3-0.3,41.6-7.8,61.1l7.9-2.1l-29.5-33.7C1783.9,966.4,1777.3,973.1,1781.2,977.6
		L1781.2,977.6z"/>
	<path class="st1" d="M1289.1,1390.1c161.4-4.9,322.9-6,484.4-3.1c6,0,6-9.4,0-9.4c-161.5-2.9-322.9-1.8-484.4,3.1
		C1283,1380.9,1283,1390.3,1289.1,1390.1z"/>
	<path class="st1" d="M1807.2,1297.6c55.2,21.7,108.3,48.3,158.6,79.7c5.1,3.1,9.9-4.9,4.7-8.1c-51-31.7-104.8-58.7-160.7-80.6
		c-5.6-2.2-8,6.9-2.5,9L1807.2,1297.6z"/>
	<path class="st1" d="M1907.4,1255c-56,65.2-88.4,147.4-92,233.2c-0.3,6,9.1,6,9.4,0c3.6-83.4,35-163.2,89.3-226.6
		C1917.9,1257.1,1911.3,1250.4,1907.4,1255L1907.4,1255z"/>
	<path class="st1" d="M655.8,1356l349.8-4.6l40.2-0.5c7.2,0,14.5-0.3,21.7-0.3c10.2,0,17,8.4,16.8,18.8
		c-0.5,21.9-14.2,21.1-32.3,21.9l-43.5,2l-177,7.8c-31.7,1.4-63.4,3.1-95.1,4.2c-28.6,0.9-83-8.4-70.3-50.1c1.8-5.8-7.3-8.3-9.1-2.5
		c-6.3,20.5,4.8,41.2,22.7,52c25.3,15.2,58.7,10,86.6,8.8l217.3-9.9l52.8-2.3c13.5-0.6,32.3,2.1,44.8-4.2
		c14.6-7.4,17.1-36.6,7.9-48.9c-4.7-6.3-11.4-6.8-18.8-7.1c-19.5-0.8-39.3,0.5-58.8,0.8l-108.3,1.4l-247.6,3.1c-6,0-6,9.4,0,9.4
		L655.8,1356z"/>
	<g id="b30eccf6-7cfe-48df-9caa-415a128bd568">
		<path class="st5" d="M2069,2506.1c-7.9,4.9-16.9,7.7-25,12.1c-8.1,4.3-16.1,10.9-18.4,19.9c-0.9,2.8-0.7,5.8,0.4,8.5
			c2,3.3,5.1,5.7,8.8,6.9c33.4,14.8,71.4,15.3,105.2,1.2c5.9-2.8,11.9-5.2,18.2-7.2c7.7-1.6,15.4-2.4,23.3-2.4
			c8.2-0.5,16.4-1.5,24.4-3.1c4.1-0.5,7.9-2,11.1-4.6c2.9-3.3,4.6-7.5,5-12c3.7-24.4-1.9-49.3-15.6-69.7c-1.7-2.9-4.1-5.3-6.8-7.2
			c-3.4-1.7-7.1-2.7-10.9-2.9c-15.6-1.9-32-5.4-47.8-5.8c-11.3-0.3-17,5.1-25,12.9C2099,2469.3,2089.4,2493.4,2069,2506.1z"/>
		<path class="st5" d="M2299.6,2503.8c0,15.3,1.8,31.6,11.1,43.8c4.3,5.3,9.4,9.8,15.2,13.3c19.7,12.5,45.7,17.1,66.4,6.5
			c3.3-1.5,6.2-3.9,8.3-6.9c3.1-5.4,1.5-12.2-0.3-18.2l-30-103.9c-19.4,3-47.8,5.1-65.1,14.9
			C2292.8,2460.3,2299.6,2490.1,2299.6,2503.8z"/>
		<path class="st6" d="M2051.4,1864c-1.8,5.7-8.4,8.4-12,13.2c-4.2,5.7-3.8,13.5-2.3,20.4c1.9,10.2,6.7,19.5,13.7,27.1
			c7.3,7.6,17.8,11.1,28.2,9.6c10.1-1.9,18.8-10.8,19.1-21.1c-0.2-4.7-1.2-9.2-2.9-13.6l-21.3-61.7c-0.2-0.9-0.7-1.6-1.5-2.1
			c-0.8-0.2-1.6,0-2.3,0.4c-5,2.4-15.1,4.9-18.1,10.1C2049,1851.6,2053.5,1858.4,2051.4,1864z"/>
		<path class="st5" d="M2041.4,1861c7.8-1.2,14.6-5.8,21.9-8.8c7.3-3,16.4-4.2,22.6,0.8c1.8,1.4,3.4,3.4,5.7,3.4
			c-3.1-15.3-7.8-30.2-14-44.6c-0.2-0.7-0.6-1.3-1.2-1.7c-0.9-0.3-1.8-0.3-2.7,0l-21.1,5.5c-7.8,2-8.7,1.4-8.1,9.1
			C2044.7,1828.1,2046.4,1861,2041.4,1861z"/>
		<path class="st7" d="M2039.1,1415.3c-3.1,4.8-3.1,10.8-3.1,16.5c0,27.7,0.3,55.5,4.4,83c1,6.6,2.2,13.1,2.8,19.8
			c0.7,9.2,0.9,18.5,0.4,27.8l-3.1,120.5c-0.4,14.7-1.1,30.6-10.2,42.2c-2.8,3.9-4.1,8.6-3.7,13.4c2.4,30.2,7.4,60.2,12.4,90.1
			c16.3-7.3,35-6.4,50.5,2.4c15.8-49.6,24.5-101.3,25.9-153.3c0.7-25.6-0.4-51.4,3.6-76.7c6.6-42.6,3.9-86.3-0.9-129.2
			c-1.5-13.6-4.8-27.6-13.5-38.1c-8.2-9.2-19.2-15.5-31.3-18C2061.6,1412.4,2051.3,1415.5,2039.1,1415.3z"/>
		<path class="st4" d="M2039.1,1415.3c-3.1,4.8-3.1,10.8-3.1,16.5c0,27.7,0.3,55.5,4.4,83c1,6.6,2.2,13.1,2.8,19.8
			c0.7,9.2,0.9,18.5,0.4,27.8l-3.1,120.5c-0.4,14.7-1.1,30.6-10.2,42.2c-2.8,3.9-4.1,8.6-3.7,13.4c2.4,30.2,7.4,60.2,12.4,90.1
			c16.3-7.3,35-6.4,50.5,2.4c15.8-49.6,24.5-101.3,25.9-153.3c0.7-25.6-0.4-51.4,3.6-76.7c6.6-42.6,3.9-86.3-0.9-129.2
			c-1.5-13.6-4.8-27.6-13.5-38.1c-8.2-9.2-19.2-15.5-31.3-18C2061.6,1412.4,2051.3,1415.5,2039.1,1415.3z"/>
		<path class="st8" d="M2077.3,1764.7c-21,107.6-9.5,218.9,32.9,320c3.7,7.5,6.2,15.4,7.6,23.7c1.7,15.3-5.4,30.1-9.4,44.9
			c-9.4,33.7-4,69.7,2,104.2c2.5,14.4,5.1,28.8,7.7,43.2c2.6,14,5.1,29.3-1.4,42c5.6,23.3,8.9,46.5,14.5,69.8
			c0.6,1.8,0.8,3.8,0.5,5.7c-1.1,3.1-3.1,5.7-5.7,7.7c-8.5,8.6-11.8,21.1-8.7,32.8c14.3-10.3,34.2-6.7,50.6,0s32.4,15.6,50.1,15.6
			c-2.6-20.7-5-42.5,2.6-61.9c4.4-11.3,12.3-21.9,12-34c-0.2-10.8-6.8-20.4-8.4-31.1c-0.6-6.6-0.3-13.3,0.8-19.9
			c4.2-38.3-0.6-77-5.3-115.2c-0.5-7.5-2.3-14.9-5.3-21.9c-2.2-4.5-5.5-8.8-5.5-13.9c0-5.9,4.7-10.6,6.5-16.2
			c3.1-10.3-2.6-24.2,6-30.6c22.8-16.8,14.1-56.8,13.6-85.2c-0.4-24.4-1.4-48.8-3.1-73.2c14.4,40.4,20.3,83.4,17.3,126.2
			c-1,14-2.8,28.8,2.6,41.7c4.2,10,12.5,18.2,14.8,28.7c1.4,6.5,0.4,13.2,0.7,19.9c0.3,6.6,2.6,13.9,8.3,17.2
			c0.4,30.2,3.1,62.4,3.6,92.6c-0.3,15.4,1,30.8,3.8,46c1.4,4.8,2.2,9.8,2.3,14.8c-0.7,6.3-2.4,12.5-4.9,18.2
			c-11.1,32.8-5.2,68.9,15.6,96.5c7.4-13.1,22.8-20.1,37.8-21.2c15-1.1,29.9,2.7,44.4,6.5c-2.2-18.3,1.4-36.8,10.4-52.9
			c2.4-3.6,4.3-7.6,5.5-11.8c1.7-7.9-2.3-15.9-4.4-23.7c-3.5-12.5-2.3-26-1.4-39.1c2.7-43.8,0.8-87.8-5.8-131.2c-1-8.5-3-17-6-25
			c-1.1-2.9-2.5-5.6-3.4-8.5c-1.5-5.2-2.3-10.6-2.5-16l-3.6-50.1c-2.5-35.1,9-69.7,17-104c3.6-15.3,7.5-30.6,9.9-46.2
			c3.3-21.2,3.8-42.9,8.6-63.8c4.3-18.8,12.1-37.1,13.7-56.3c2.5-29.8-9.9-58.6-21.9-86c-5-11.3-23.9-10.1-36.1-12.1
			c-86.3-14.2-177.3-14.3-258.7,17.7C2091.2,1752.8,2083.6,1758.1,2077.3,1764.7z"/>
		<path class="st6" d="M2139.6,1209.3l9.6,37.2c2.6,8.5,4,17.4,4.3,26.3c0.1,3.3-0.6,6.5-2.1,9.4c-1.6,2.4-3.6,4.4-5.9,6.1
			c-6.5,5-11.1,16.6-18.6,20c3.8,6.7,9.2,2.3,16.1,5.7c12.2,5.9,23.4,14.5,36.7,17.4c12.5,2.8,25.7,0.2,38.1-3.1
			c17.6-4.8,35.1-11.4,49.3-22.9s22.3-21.7,22.2-40c-15.6,1.8-29.6-14-36.5-28.2c-2.4-5.4-4.2-11.1-5.3-16.9l-8.4-36.9
			c-9.1,2-16.6,8.5-25.3,12c-8.7,3.4-19.1,3.7-28.8,4.2c-17.2,0.8-34.3,3-51.2,6.6c-2.3,0.5-5.2,1.9-4.7,4.2"/>
		<path class="st4" d="M2139.6,1209.3l9.6,37.2c2.6,8.5,4,17.4,4.3,26.3c0.1,3.3-0.6,6.5-2.1,9.4c-1.6,2.4-3.6,4.4-5.9,6.1
			c-6.5,5-11.1,16.6-18.6,20c3.8,6.7,9.2,2.3,16.1,5.7c12.2,5.9,23.4,14.5,36.7,17.4c12.5,2.8,25.7,0.2,38.1-3.1
			c17.6-4.8,35.1-11.4,49.3-22.9s22.3-21.7,22.2-40c-15.6,1.8-29.6-14-36.5-28.2c-2.4-5.4-4.2-11.1-5.3-16.9l-8.4-36.9
			c-9.1,2-16.6,8.5-25.3,12c-8.7,3.4-19.1,3.7-28.8,4.2c-17.2,0.8-34.3,3-51.2,6.6c-2.3,0.5-5.2,1.9-4.7,4.2"/>
		<circle class="st6" cx="2180.7" cy="1146.9" r="82.9"/>
		<path class="st5" d="M2203.5,1283.5c4.4-9.6,10.8-18.1,18.8-25c11.7-10.2,27.6-18.5,30.4-33.8l25.3,29.4c1.4,1.4,2.4,3,3.1,4.8
			c0.6,3.4-0.2,7-2.4,9.7c-6.3,10-16.1,17.1-25.4,24.3c-21.4,16.9-41.8,35-61.3,54.1c-0.9,1-2,1.7-3.3,2c-1.2,0-2.4-0.3-3.4-1
			c-16.8-8.8-31.7-20.9-43.7-35.6c-0.9-1.1-2-2.3-3.5-2.3c-0.9,0.2-1.7,0.6-2.3,1.2c-8.4,6.9-17.6,15.1-28.4,14.1
			c14-10,21.9-26.8,24.8-43.8c0.6-5.8,1.8-11.6,3.6-17.1c1.9-5.7,6.5-10,12.2-11.6c-6.8,10.4-2.2,25.2,7,33.6
			c8.9,7.6,19.6,12.7,31,15.1C2196.6,1303.8,2199.7,1291.7,2203.5,1283.5z"/>
		<path class="st5" d="M2095.7,1773.2c11.8,2.9,23,7.9,34.4,11.5c20.9,6.5,42.8,8.8,64.6,6.8c6.7-0.1,13.2-2.2,18.8-6
			c1.5-1.2,2.8-2.6,4.4-3.7c2.6-1.6,5.5-2.7,8.4-3.5c28.7-9,52.7-28.4,76-47.3c0.8-0.6,1.6-1.4,1.5-2.4c-0.1-0.7-0.4-1.3-0.9-1.8
			l-12.3-14.1c-32.2,5.5-65.1,3.4-97.8,2.6c-6.7-0.3-13.4-0.1-20.1,0.5c-6.4,0.8-12.8,2.4-19.2,3.8c-24.1,5.3-48.8,7.3-73.2,10.7
			c-1.7,0.1-3.4,0.6-4.9,1.5c-1,0.8-1.9,1.8-2.6,2.9l-8.6,12c-3.3,4.1-5.8,8.8-7.2,13.8c-2,9.4,2.2,12.5,10.2,11.3
			C2076.8,1770.5,2086.4,1771,2095.7,1773.2z"/>
		<path class="st7" d="M2191.6,1332.8c-9.6-9.8-20.4-18.3-32.3-25.2c-4.8-3-10.1-5.2-15.6-6.3c-5.7-1.1-11.5,0.3-16,3.9
			c-2.8,2.5-4.5,5.9-7.2,8.5c-3.4,2.8-7.3,5-11.5,6.5c-14.2,6.1-27.7,13.8-40.2,22.9c-6.8,4.8-12.9,10.4-18.2,16.8
			c-14.2,18.2-16.3,42.8-15.9,65.9c0.3,16,15.6,27.9,26.2,39.9c9.9,11.8,18.9,24.4,26.9,37.6c5.7,9,11.6,18.8,10.9,29.5
			c-0.6,8.8-5.7,17.1-4.9,25.8c0.3,3.1,1.3,6,1.6,9c0.6,6.3-1.9,12.5-2.5,18.8c-0.8,8.9,2,17.7,2.2,26.6c-0.1,6.1-0.9,12.2-2.3,18.1
			c-6,28.6-13.6,57.4-12,86.6l-17.3,3.1c5.8,5.7,5.9,14.9,0.2,20.7c-1,1.1-2.2,2-3.6,2.7c27.1,9,56.3,4.5,85,4.4
			c23.8,0,47.4,3.1,71.1,2.7c23.7-0.4,48.2-4.7,67.8-18.2c5.3-3.6,10.2-7.9,15.8-11c7.5-3.9,15.6-6.5,23.9-7.8
			c15.5-3,31.2-4.4,46.9-4.2c7.7,0,16.1,0.3,22.2-4.3c6.8-5.1,8.5-14.4,9.4-22.8c0.9-8.9,1.5-17.8,1.6-26.7
			c0.3-6.9-0.1-13.9-1.1-20.8c-0.9-5-2.2-10-3.7-14.9l-11.8-41.6c-4.9-17.1,1.9-36,3.3-53.7c0.3-4.2,0.4-9.1-2.8-11.8
			c-1.2-1-2.8-1.6-3.1-3.1c-0.3-1.4-0.1-3,0.8-4.2c6.3-12.5,15.6-23.6,24.2-34.9c14.4-19.8,27.8-40.4,40.1-61.6
			c-3.8-44.3-22.5-86.1-53-118.5c-6.3-6.8-13.4-13.3-22.2-16.4c-5.7-1.7-11.7-2.7-17.7-2.8c-24.5-1.7-50.1-3.1-71.4-15.5
			c-1.5-1.1-3.3-1.8-5.1-2.2c-4.7-0.5-8.2,4.1-11.2,7.8c-7.9,9.4-19.5,14.8-29.7,21.7C2220.2,1296.9,2205.3,1314.7,2191.6,1332.8z"
			/>
		<path class="st7" d="M2451.7,1422.6c4.9,15.5,4.4,32,6,48.1c0.9,9.7,2.7,19.4,5.1,28.8c1.1,5.2,3.1,10.2,5.9,14.7
			c2.8,4.1,6.9,7.5,8.6,12.1c1,3.2,1.4,6.5,1.3,9.8l0.4,21.6c0.8,11.4-0.9,22.9-5.1,33.6l-13.5,41c-7.3,22.2-14.8,44.8-27.9,64.1
			c-1.9,3.3-4.7,5.9-8,7.5c-2.7,0.7-5.4,1.1-8.1,1.3c-9.8,1.8-17.1,10.3-17.2,20.2c-3.1-4.6-7-8.6-11.5-11.8l-27.4-21.9
			c-9.4-7.6-19.2-15.4-30.6-19.8c31.3-9.8,53.9-37.1,57.6-69.7c0-4.7,1.1-9.4,3.1-13.7c2.3-3.7,6.5-6.5,6.8-10.9
			c0.4-5.5-5.8-9.6-5.8-15.1c0-3.6,2.7-6.6,3.9-10c1.1-4.2,1.1-8.6,0-12.9l-3.8-21c-0.2-2.1-0.9-4.1-1.9-6c-1.4-1.8-3-3.4-4.7-4.9
			c-6.5-7.3-3.6-18.8,0-27.8c8.3-19.9,19.1-38.8,32-56.1c4.6-5.8,8.8-11.9,12.7-18.2c3.3-5.8,4.1-13.7,7.6-18.8
			C2441.7,1398.8,2447.8,1410.5,2451.7,1422.6z"/>
		<path class="st5" d="M2328.7,1673.3c-1.4,1-2.6,2.3-3.6,3.8c-3.7,4.6-8.6,8.1-14.2,10.1c3.1,2.3,6,4.5,8.9,6.8
			c21.8,16.8,41.7,35.9,59.5,56.9c2-7,13.8-6.5,16.6-13.3c0.7-1.9,0.9-4,0.6-6c-0.6-10.5-2.1-21-4.5-31.3
			c-0.9-5.3-3.1-10.3-6.3-14.6c-4.4-5.3-11.2-7.8-17.7-10C2358.3,1672.1,2338.7,1667.3,2328.7,1673.3z"/>
		<path class="st6" d="M2289.6,1697.9c-9.4,6.9-17.6,15.6-28.2,20.4c-7.4,3.4-15.9,4.9-22.4,9.9c3.5,7.8,12.7,11.8,21.3,11.5
			c8.6-0.8,16.7-3.8,23.8-8.7c5.6-3.4,12.2-7.4,18.3-5c0.9,4.8-3.1,9.2-3.1,14.1c0,4.8,4,8.3,7.9,10.9c18.8,12.1,42.9,11.1,65.3,9.7
			c1.3,0,2.5-0.3,3.6-1.1c1-1.1,1.5-2.6,1.3-4.1c0.3-4.9,0.4-9.9,0.4-14.8c1.3-8.1-2.2-16.3-9.1-20.9
			c-12.1-10.4-25.2-19.7-39.1-27.7C2315.9,1684,2301.9,1688.7,2289.6,1697.9z"/>
		<path class="st8" d="M2209.8,1112.3c-13.9,1.7-24,12.5-22.6,24.3c1.4,11.8,13.8,19.9,27.7,18.2s24-12.5,22.6-24.3
			C2236.1,1118.8,2223.7,1110.6,2209.8,1112.3z M2214.5,1151.6c-11.8,1.4-22.3-5.5-23.5-15.5c-1.2-10,7.4-19.2,19.1-20.6
			c11.7-1.4,22.3,5.5,23.5,15.5S2226.3,1150.2,2214.5,1151.6L2214.5,1151.6z"/>
		<path class="st8" d="M2142.1,1120.4c-13.9,1.7-24,12.5-22.6,24.3c1.4,11.8,13.8,19.9,27.7,18.3s24-12.5,22.6-24.3
			C2168.4,1126.9,2156,1118.8,2142.1,1120.4z M2146.8,1159.7c-11.8,1.4-22.3-5.5-23.4-15.4c-1.2-9.9,7.4-19.2,19.1-20.6
			c11.8-1.4,22.3,5.5,23.4,15.5S2158.5,1158.3,2146.8,1159.7L2146.8,1159.7z"/>
		<polygon class="st8" points="2091.8,1126.5 2122,1132.9 2119,1140.9 2090.5,1132.5 		"/>
		<polygon class="st8" points="2260.1,1106.3 2232.3,1119.7 2237,1126.7 2262.7,1111.8 		"/>
		<polygon class="st8" points="2167,1130.9 2188.2,1128.4 2187.1,1133.6 2168.9,1134.9 		"/>
		<path class="st9" d="M2125.9,1123.8c2-4.3,3.1-8.9,3.1-13.7c0.1-2.8,0.6-5.6,1.4-8.3c1.5-3.4,3.9-6.4,6.8-8.7
			c9.8-8.3,23.8-12.5,37.6-13.1c15-0.7,30,2.5,43.4,9.4c4.1,1.9,7.8,4.6,10.8,8c4.4,5.4,5.3,12.3,9.7,17.6c6.1,6.5,15.2,9.4,24,7.5
			c1.5-5.4-0.5-11.2,0.3-16.8c1.2-4.8,2.9-9.4,5-13.9c4.9-14.3-2.2-30.9-16.8-39.4c-5.1-3.1-11.1-5.2-15-9.4
			c-3.8-4.2-4.7-8.6-7.4-12.8c-7-11.2-25-16.4-38.8-11.2c-4.3,1.6-8.1,4.1-12.5,5.9c-8.1,3.3-17.4,3.9-26.3,5.1
			c-8.8,0.8-17.4,3.1-25.5,6.7c-7.7,3.8-14.2,10-16,17.3c-0.8,3.4-0.7,6.9-1.5,10.2c-4.3,17-32.2,25.3-33.8,42.6
			c-0.6,6.3,2.8,12.3,7.1,17.4c2.9,3.5,10,12.8,15,14.1c5,1.3,8.8-3.4,13.5-5C2117.6,1130.7,2122.1,1130.2,2125.9,1123.8z"/>
	</g>
	<path class="st2" d="M2478.9,2226c0,157.2,98.6,284.5,220.5,284.5"/>
	<path class="st1" d="M2699.5,2510.5c0-159,110.1-287.7,246.1-287.7"/>
	<path class="st1" d="M2558.9,2240.3c0,149.4,62.9,270.2,140.6,270.2"/>
	<path class="st2" d="M2699.5,2510.5c0-203.2,127.2-367.6,284.5-367.6"/>
	<ellipse class="st0" cx="2689.9" cy="2555.6" rx="54.8" ry="9.3"/>
	<path class="st10" d="M2653.1,2512.5c0,0,31.3-1,40.7-7.7c9.4-6.7,48.1-14.7,50.4-4c2.3,10.8,46.9,53.5,11.7,53.8
		c-35.3,0.3-82.1-5.5-91.4-11.2C2655,2537.8,2653.1,2512.5,2653.1,2512.5z"/>
	<path class="st11" d="M2756.5,2551c-35.3,0.3-82-5.5-91.4-11.2c-7.2-4.3-10-20-11-27.2h-1c0,0,2,25.2,11.4,31
		c9.4,5.7,56.1,11.5,91.4,11.2c10.2,0,13.7-3.7,13.5-9.1C2768,2548.9,2764.3,2550.9,2756.5,2551z"/>
	<path class="st2" d="M86.5,2317.9c0,125.2,78.5,226.3,175.4,226.3"/>
	<path class="st1" d="M261.9,2544.2c0-126.5,87.6-228.9,195.8-228.9"/>
	<path class="st1" d="M150,2329.3c0,118.9,50.1,215,111.9,215"/>
	<path class="st2" d="M261.9,2544.2c0-161.6,101.2-292.4,226.3-292.4"/>
	<ellipse class="st0" cx="254.3" cy="2580.1" rx="43.6" ry="7.4"/>
	<path class="st10" d="M225,2545.8c0,0,24.9-0.8,32.4-6.3c7.5-5.5,38.3-11.7,40.2-3.1s37.4,42.6,9.4,42.8c-28,0.2-65.3-4.4-72.8-8.9
		C226.7,2565.8,225,2545.8,225,2545.8z"/>
	<path class="st11" d="M307.3,2576.5c-28.2,0.2-65.3-4.4-72.8-9c-5.7-3.4-7.9-15.9-8.7-21.7H225c0,0,1.6,20.1,9,24.6
		c7.5,4.6,44.7,9.1,72.8,8.9c8.1,0,10.9-2.9,10.8-7.2C316.4,2574.7,313.3,2576.3,307.3,2576.5z"/>
</g>
</svg>
