<?xml version="1.0" encoding="utf-8"?>
<!-- Generator: Adobe Illustrator 24.0.1, SVG Export Plug-In . SVG Version: 6.00 Build 0)  -->
<svg version="1.1" id="a02f2390-8fa7-48a9-96f1-2ec5f63ecbc1"
	 xmlns="http://www.w3.org/2000/svg" xmlns:xlink="http://www.w3.org/1999/xlink" x="0px" y="0px" viewBox="0 0 3000 3000"
	 style="enable-background:new 0 0 3000 3000;" xml:space="preserve">
<style type="text/css">
	.st0{opacity:0.1;fill:#7971EA;enable-background:new    ;}
	.st1{fill:#454B69;}
	.st2{fill:none;}
	.st3{opacity:0.4;enable-background:new    ;}
	.st4{opacity:0.1;enable-background:new    ;}
	.st5{fill:#EFB7B9;}
	.st6{fill:#FFFFFF;}
	.st7{fill:#7971EA;}
	.st8{opacity:0.1;}
	.st9{opacity:8.000000e-02;enable-background:new    ;}
	.st10{fill:#3F3D56;}
	.st11{fill:#9C9CA1;}
	.st12{fill:#939498;}
</style>
<title>teacher</title>
<g>
	<path class="st0" d="M2965.4,2198.8c-11.6,28.7-25.9,56.2-42.7,82.2c-7.9,12.4-16.5,24.3-25.9,35.6c-0.1,0.1-0.2,0.2-0.3,0.3H2.9
		l0.4-0.3c2.6-2,17.9-14.4,41.7-35.6c17.1-15.2,38.5-34.9,62.5-58.7C304,2029,681.5,1571.4,367.1,1152.2
		c-292.3-389.7,22.4-460.4,230-468.7c79.8-3.1,159.4,9.9,234,38.2c95.9,36.5,271.2,92.3,499.6,117.9c7.5,0.8,15,1.7,22.7,2.4
		c120.9,12.3,242.7,14.5,364,6.6l0,0c3.6-0.2,7.2-0.5,10.8-0.7c120-8.4,239.1-26.8,356-55.1c7.6-1.8,15-3.6,22.5-5.3
		c389.6-90.1,748.8,217.1,659,564.3c-33.2,128.4-24.8,265.3,85.9,376C3032.7,1908.7,3010.8,2086.7,2965.4,2198.8z"/>
	<path class="st1" d="M2965.4,2198.8c-11.6,28.7-25.9,56.2-42.7,82.2c-7.9,12.4-16.5,24.3-25.9,35.6H3.2c2.6-2,17.9-14.4,41.7-35.6
		c17.1-15.2,38.5-34.9,62.5-58.7l305-63c3.9-0.8,8-1.2,12-1.2l325.1-0.5h0.3l161-0.2h0.4l135.9-0.2h89l0,0h91.1l373.4-0.5h0.6h28.9
		h50.8h63.5h16.9l64.1-0.7h21.2l186.5-0.3h59.6l0,0h28.6l0,0l215.5-0.3h64.2l204.1-0.3l172.3-0.2c4.8,0,9.6,0.6,14.2,1.7
		L2965.4,2198.8z"/>
	<path class="st2" d="M44.9,2281h2877.8c-7.9,12.4-16.5,24.3-25.9,35.6H3.2C5.8,2314.4,21.1,2302.1,44.9,2281z"/>
	<path class="st3" d="M44.9,2281h2877.8c-7.9,12.4-16.5,24.3-25.9,35.6H3.2C5.8,2314.4,21.1,2302.1,44.9,2281z"/>
	<path class="st1" d="M1912,1471.2l-5.8,1.1l-261.3,50.2c-75.9,14.6-152.9,29.2-230,23.6c-55.9-4.1-108-20.6-161.7-35.2
		c-30.3-8.2-62.5-11.5-72.8-45.5c-14.2-46.9,8.9-116.3,14.3-163.7c5.2-46.6,8.3-94.4-1-140.4c-2.1-10.4-4.8-20.6-8.1-30.6
		c-9.3-27.6-23.9-56.2-16-84.2c6.2-22.2,25.2-38.1,43-52.8c34.8-28.6,70.3-60.7,84.1-103.7c6.8-20.8,8-43.2,15.3-63.9
		c13.8-39.3,48.6-68.7,87.2-84.3c38.6-15.6,81.1-18.9,122.8-18.9c36.8,0,73.6,2.4,110.1,7.3c39.8,5.2,79.9,13.8,114.9,33.5
		s64.4,52.1,72.6,91.5c11.5,55.7-20.5,115.1-3.3,169.2c8.6,27.4,28.6,49.5,42.5,74.5c22.9,42.3,27.6,92.1,13,138
		c-16.6,51.5-57.3,103.6-36.5,153.5c13.3,31.7,47.1,48.7,70.7,73.8C1908.2,1466.7,1910.1,1469,1912,1471.2z"/>
	<path class="st4" d="M1906.2,1464.7v7.7l-261.3,50.2c-75.9,14.6-152.9,29.2-230,23.6c-55.9-4.1-108-20.6-161.7-35.2
		c-30.3-8.2-62.5-11.5-72.8-45.5c-14.2-46.9,8.9-116.3,14.3-163.7c5.2-46.6,85.4-216.8,76.1-262.8l479.1,20.8
		c3.2,25.4,129.8,153.1,122,177.5c-16.6,51.5-57.3,103.6-36.5,153.5C1848.8,1422.6,1882.6,1439.5,1906.2,1464.7z"/>
	<path class="st5" d="M1416.7,1335.9c2.8,16.1,4.3,33.8-3.9,47.9c-11,18.9-34.9,24.9-56.2,29.1l-74.2,14.8c-5.1,1-10.4,2.2-14.2,5.6
		c-4.5,4-6,10.3-6.6,16.2c-3,26.9,6.5,53.4,15.2,78.9c17.5,51.8,32.2,104.8,54.4,154.8c22.2,50,52.6,97.8,96,131.2
		c43.4,33.4,100.8,51.2,154,38.2c46.3-11.4,84.3-44.1,117-78.7c27-28.6,52.3-59.9,65.4-97c9-25.5,12-52.7,14.8-79.6
		c4.4-41.3,8.8-82.6,13.2-123.8c2.1-19.4,3.4-41.2-9.2-56c-5.5-6.5-13-10.9-20.7-14.9c-28.5-15.1-58.5-27.6-85-45.9
		s-50-43.3-58.1-74.5c-4.8-18.7-4-39.1-12.2-56.5c-9.2-19.5-28.6-32.8-49.5-38.6c-20.8-5.8-42.8-5-64.3-2.6
		c-21.5,2.4-104.1,8.6-113,32.8c-4.8,13,15,41,19.7,53.8C1407,1292.2,1412.8,1313.8,1416.7,1335.9z"/>
	<path class="st4" d="M1416.7,1335.9c2.8,16.1,4.3,33.8-3.9,47.9c-11,18.9-34.9,24.9-56.2,29.1l-74.2,14.8c-5.1,1-10.4,2.2-14.2,5.6
		c-4.5,4-6,10.3-6.6,16.2c-3,26.9,6.5,53.4,15.2,78.9c17.5,51.8,32.2,104.8,54.4,154.8c22.2,50,52.6,97.8,96,131.2
		c43.4,33.4,100.8,51.2,154,38.2c46.3-11.4,84.3-44.1,117-78.7c27-28.6,52.3-59.9,65.4-97c9-25.5,12-52.7,14.8-79.6
		c4.4-41.3,8.8-82.6,13.2-123.8c2.1-19.4,3.4-41.2-9.2-56c-5.5-6.5-13-10.9-20.7-14.9c-28.5-15.1-58.5-27.6-85-45.9
		s-50-43.3-58.1-74.5c-4.8-18.7-4-39.1-12.2-56.5c-9.2-19.5-28.6-32.8-49.5-38.6c-20.8-5.8-42.8-5-64.3-2.6
		c-21.5,2.4-104.1,8.6-113,32.8c-4.8,13,15,41,19.7,53.8C1407,1292.2,1412.8,1313.8,1416.7,1335.9z"/>
	<path class="st6" d="M1595.3,1619l43.5-92.1c20.4-43.2,41.2-88.5,39.1-136.2c-0.4-9.5-0.5-21.3,7.8-25.6c3.6-1.5,7.6-2,11.4-1.5
		c45.8,2.3,91,11.5,134.1,27.1c8.4,3,16.9,6.5,22.8,13.2c5.9,6.7,8.2,15.6,10.2,24.2c6.8,29.1,11.8,58.5,14.9,88.2
		c7.8,73.5,3.9,147.6,0,221.3l-11.6,225c0.1,3.2-0.6,6.4-1.9,9.3c-2.9,5.2-9.3,7-15.1,7.9c-22.4,3.8-45.2,3-67.9,2.2
		c-159.3-6-319.5-15.3-477.8,4c0.7-23.4,0.3-46.9-1.1-70.3c-6.3-101.3-32.5-200-58.3-298.2c-15-57.3-29.6-119.8-5.4-173.7
		c3.6-8.5,8.7-16.3,15.1-23c10.3-10.1,24.3-15.4,38.2-19.2c24-6.5,48.8-9.3,73.7-8.3l164.2,357.4c7.5,16.4,13.7,33.6,21.1,49.7
		c6.7-27.9-1.4-60.6,6.7-90.8C1567.7,1678.3,1581.4,1648.3,1595.3,1619z"/>
	<path class="st7" d="M1578.1,1864.9c29.4,1.8,57.9-13.2,78.1-34.5s33.5-48.2,44.8-75.5c16.2-38.9,29.1-79,38.5-120.1
		c7.8-34.9,13.4-71,8-106.4c-7.4-48.8-35.1-93.2-39.8-142.3c-0.8-8.6-0.3-18.6,6.6-23.8c4.3-3.2,9.9-3.6,15.2-4
		c49.1-2.9,103.1-2.4,141.1,28.8c11.6,9.5,21,21.3,32.3,31.1c27,23.4,65.1,35.4,82.4,66.5c6,10.8,8.9,23.1,13.1,34.8
		c9.9,27.6,27.2,51.9,44.3,75.7c-16.6,70-35.6,140-52.2,210c-9.7,41.1-19.5,82.3-34.8,121.6c-10,25.8-22.6,52.1-19.5,79.7
		c1.2,10.9,4.8,21.2,8,31.7c11,36.7,16.2,75,15.3,113.3l-743,1.8c35.6-51,46-113.6,42.4-175.7c-1.7-29.8-8.5-59.7-23.4-85.5
		c-23.6-40.4-65.1-66.7-106-89.2c-28.6-15.6-59.4,72.3-90.3,62.2c5-35.4,7.3-171.8,5.2-207.4c-0.7-11.7-1.7-23.6,1.9-34.8
		c2.4-7.6,7-14.5,10-21.9c12.2-29.7,0.6-67.7,20.3-93c13.6-17.6,37.6-22.6,57-33.4c20-11.1,35.4-28.6,52.8-43.6
		c34.1-29,75.8-47.6,120.2-53.7c12.9,20.4,20.8,43.6,22.9,67.7c1.3,15.1,0.4,30.5,2.5,45.5c2.9,20.4,11.3,39.5,19.7,58.4
		c34.8,78.6,69.8,157.4,113.9,231.3c12.5,20.8,26,41.7,44.1,57.9C1527.8,1854.5,1553.9,1866.1,1578.1,1864.9z"/>
	<path class="st4" d="M1578.1,1864.9c29.4,1.8,57.9-13.2,78.1-34.5s33.5-48.2,44.8-75.5c16.2-38.9,29.1-79,38.5-120.1
		c7.8-34.9,13.4-71,8-106.4c-7.4-48.8-35.1-93.2-39.8-142.3c-0.8-8.6-0.3-18.6,6.6-23.8c4.3-3.2,9.9-3.6,15.2-4
		c49.1-2.9,103.1-2.4,141.1,28.8c11.6,9.5,21,21.3,32.3,31.1c27,23.4,65.1,35.4,82.4,66.5c6,10.8,8.9,23.1,13.1,34.8
		c9.9,27.6,27.2,51.9,44.3,75.7c-16.6,70-35.6,140-52.2,210c-9.7,41.1-19.5,82.3-34.8,121.6c-10,25.8-22.6,52.1-19.5,79.7
		c1.2,10.9,4.8,21.2,8,31.7c11,36.7,16.2,75,15.3,113.3l-743,1.8c35.6-51,46-113.6,42.4-175.7c-1.7-29.8-8.5-59.7-23.4-85.5
		c-23.6-40.4-65.1-66.7-106-89.2c-28.6-15.6-59.4,72.3-90.3,62.2c5-35.4,7.3-171.8,5.2-207.4c-0.7-11.7-1.7-23.6,1.9-34.8
		c2.4-7.6,7-14.5,10-21.9c12.2-29.7,0.6-67.7,20.3-93c13.6-17.6,37.6-22.6,57-33.4c20-11.1,35.4-28.6,52.8-43.6
		c34.1-29,75.8-47.6,120.2-53.7c12.9,20.4,20.8,43.6,22.9,67.7c1.3,15.1,0.4,30.5,2.5,45.5c2.9,20.4,11.3,39.5,19.7,58.4
		c34.8,78.6,69.8,157.4,113.9,231.3c12.5,20.8,26,41.7,44.1,57.9C1527.8,1854.5,1553.9,1866.1,1578.1,1864.9z"/>
	<circle class="st5" cx="1538.8" cy="1106.7" r="223.2"/>
	<path class="st1" d="M1421.7,1404.2c6.1-57.8-17.9-114.3-45.1-165.6c-13-24.5-27-49-33.5-75.9c-6.5-26.9-4.7-57.5,12.1-79.6
		c14.2-18.9,36.8-29,57.6-40.1c58.9-31.2,112.7-77.2,138.6-138.6c-14.6,8-10.8,31.7,2.1,42.2c12.9,10.5,30.5,12.5,46.4,17.5
		c57.9,18.2,92.6,76,120.5,129.9c4.6,8.8,9.2,18.1,9.1,28s-4.6,18.7-9.3,27.2c-13.7,24.5-30.6,48-36.8,75.4
		c-7.2,31.2,0.4,64.1,10.2,94.8c10.4,32.6,24.2,65.5,49.2,88.8s63.8,35,94.5,19.9c-30.7-52.8-62.5-111.8-50.5-171.6
		c5.8-28.6,21.3-54.7,27.9-83.2c12.6-54.3-8.4-110.2-29-162.1l-61.6-154.8c-9.4-23.7-20.1-48.9-41.7-62.3c-14.6-9-32.2-11.4-49.3-13
		c-55-4.9-112-3.3-163.2,17.2c-93.3,37.3-151.7,129.1-198.1,218.2c-13.9,26.7-27.6,55-27.1,85.1c0.3,16.5,4.9,32.6,8.7,48.7
		c15.3,65.5,16.1,133.4,16.9,200.6c0.6,51.6-2.1,100.2-24.7,147.2c30.9,6.1,75.8,22.7,106.4,10.6
		C1392.1,1493,1416.7,1444.4,1421.7,1404.2z"/>
	<g class="st8">
		<path d="M1270.3,1349.8c0.1-7.3,0.1-14.8,0-22.2c-0.8-67.3-1.6-135.1-16.9-200.6c-3.4-12.7-6.1-25.7-8-38.7
			c-0.5,4.5-0.8,9-0.7,13.5c0.3,16.5,4.9,32.6,8.7,48.7C1268.6,1215.5,1269.6,1282.9,1270.3,1349.8z"/>
		<path d="M1814.7,1173.3c3.4-15.2,4.6-30.9,3.4-46.4c-0.5,7.7-1.6,15.4-3.4,23c-6.6,28.6-22.2,54.4-27.9,83.2
			c-2.5,12.7-3.2,25.6-2.1,38.5c0.4-5.1,1.1-10.1,2.1-15C1792.6,1227.7,1808.1,1201.8,1814.7,1173.3z"/>
		<path d="M1727.5,1110.1c1.3-3.7,2-7.6,2-11.5c0-9.9-4.6-19.2-9.1-28c-27.9-53.9-62.5-111.6-120.5-129.9c-15.9-5-33.5-7-46.4-17.5
			c-6.7-5.8-10.8-14.1-11.4-22.9c-28.2,51.8-76.7,91.4-129.2,119.3c-20.8,11.1-43.4,21.2-57.6,40.1c-13.4,17.7-17.2,40.7-14.9,63
			c1.3-14.3,6.5-28,14.9-39.6c14.2-18.9,36.8-29,57.6-40.1c52.5-27.8,101-67.5,129.2-119.3c0.6,8.9,4.7,17.1,11.4,22.9
			c13,10.4,30.5,12.5,46.4,17.5c57.9,18.2,92.6,76,120.5,129.9C1723.2,1099.2,1725.6,1104.6,1727.5,1110.1z"/>
		<path d="M1742.8,1384.7c-25-23.4-38.8-56.2-49.2-88.8c-6.3-18.3-10.5-37.3-12.5-56.5c-2.4,26.7,4.2,54.1,12.5,80
			c10.4,32.6,24.2,65.5,49.2,88.8c25,23.4,63.8,35,94.5,19.9c-3.7-6.3-7.4-12.8-11-19.2C1797.7,1416.9,1764.9,1405.4,1742.8,1384.7z
			"/>
		<path d="M1421.7,1380.7c-5,40.2-29.6,88.8-69.6,104.7c-27.8,11-67.3-1.6-97.5-8.6c-2.6,7.3-5.6,14.5-8.9,21.5
			c30.9,6.1,75.8,22.7,106.4,10.6c40-15.9,64.6-64.5,69.6-104.7c1-10.1,1.2-20.2,0.6-30.3
			C1422.1,1376.2,1421.9,1378.5,1421.7,1380.7z"/>
	</g>
	<path class="st6" d="M1737.2,2026.3c-40.2-6.4-81.1-18.7-120.9-10.4c-23.1,4.8-44.3,16.3-63.5,30.2c10.6,8.5,22.9,16,29.6,27.8
		c4.2,8.1,7.3,16.8,9.3,25.7c4.2,15.6,8.5,31.6,9.1,47.8s-2.6,33.2-12.3,46.3c50.7,5,99.9-7.5,149.4-19.7c5.7-1,11-3.2,15.8-6.4
		c7.8-6.1,10.1-17.1,10.2-27.1c0-17.8-5-35.2-10.1-52.3C1747.8,2067.8,1743.3,2046.7,1737.2,2026.3z"/>
	<path class="st7" d="M2008.8,1587.1c20,2.6,35.5,18.7,46.9,35.3c32,46.1,45.8,102,61.2,155.9c19.1,67.1,41.5,133.2,67.4,198.2
		c5.6,15,12.3,29.6,20.2,43.5c6.4,10.8,14.2,21.1,17.1,33.3c6.9,29.5-17.5,57.3-42.9,73.7c-13.5,9.1-28.3,16.2-43.9,21.1
		c-15.2,4.5-31,6.2-46.7,8l-144.5,15.6c-66.5,7.2-133.7,14.5-200.2,7.5c-4.2-14.6,4-24.9,3.4-40.1c-0.4-10.9-5.2-21-9.5-31
		c-7.9-17.8-13.1-36.7-15.4-56c-0.8-7.1-1-14.4-3.7-21c-2.7-6.6-8.5-12.6-15.6-13c39.1-3.9,68.7-11.2,107.8-15.2
		c14.5-1.5,29.6-3.1,41.9-10.8c15.3-9.6,23.9-26.8,30.8-43.5c16.9-41.4,27.8-87,18.9-130.9c-7.3-36-27.6-69.4-27.5-106.1
		c0-21.8,7.4-43,16.2-63c9.3-21.1,21.5-42.8,41.9-53.5C1953.1,1584.6,1985.7,1584,2008.8,1587.1z"/>
	<path class="st9" d="M2008.8,1587.1c20,2.6,35.5,18.7,46.9,35.3c32,46.1,45.8,102,61.2,155.9c19.1,67.1,41.5,133.2,67.4,198.2
		c5.6,15,12.3,29.6,20.2,43.5c6.4,10.8,14.2,21.1,17.1,33.3c6.9,29.5-17.5,57.3-42.9,73.7c-13.5,9.1-28.3,16.2-43.9,21.1
		c-15.2,4.5-31,6.2-46.7,8l-144.5,15.6c-66.5,7.2-133.7,14.5-200.2,7.5c-4.2-14.6,4-24.9,3.4-40.1c-0.4-10.9-5.2-21-9.5-31
		c-7.9-17.8-13.1-36.7-15.4-56c-0.8-7.1-1-14.4-3.7-21c-2.7-6.6-8.5-12.6-15.6-13c39.1-3.9,68.7-11.2,107.8-15.2
		c14.5-1.5,29.6-3.1,41.9-10.8c15.3-9.6,23.9-26.8,30.8-43.5c16.9-41.4,27.8-87,18.9-130.9c-7.3-36-27.6-69.4-27.5-106.1
		c0-21.8,7.4-43,16.2-63c9.3-21.1,21.5-42.8,41.9-53.5C1953.1,1584.6,1985.7,1584,2008.8,1587.1z"/>
	<path class="st5" d="M1103.7,1553.3c9.5-22.4,19.1-45.6,19.3-70c0.3-26.3-10.4-51.3-18.6-76.3c-10.1-30.6-16.8-62.2-20.1-94.2
		c-0.7-3.1-0.2-6.3,1.3-9c2.2-3,6.3-3.7,10-4.5c18-4.1,31.6-18.7,42.9-33.3c17.5-22.6,32.2-47.2,43.9-73.3
		c8.6-19.2,20.3-42.6,41.3-42.8c-8.5,39.8-19,79.1-31.5,117.8c22-5.6,42.9-13.8,64.9-19.4c4.3-1.4,8.8-2,13.3-1.8
		c13.2,1.4,21.2,19.2,13.6,30c10.8,12.6,28.6,16,42.7,24.6c14.1,8.6,24.2,30,11.7,40.9c-2.4,2.1-5.5,3.6-7.3,6.3
		c-6,9.3,8.7,20,7.5,31.1c-1,9-12.6,13.3-21.4,10.9c-8.8-2.4-15.6-9-23.4-13.8c-7.8-4.8-18-7.8-25.6-2.8c-2,24.5-4.2,49.5-14.8,71.8
		c-3.9,8.1-8.9,15.8-12,24.2c-3,9.2-4.8,18.8-5.5,28.5l-9.5,86.4C1181.5,1593.6,1141.1,1580.1,1103.7,1553.3z"/>
	<path class="st6" d="M1092.7,1630.8l-8.3-56.2c-0.8-4.6-1.2-9.2-1.3-13.9c0-13,5.7-25.4,11.3-37.3c46,21.5,95.6,29.1,146.3,29.1
		c6.7,0,14.3-0.6,18.5-5.9c8.6,9.9,8.9,25.9,5.2,38.5c-3.7,12.6-10.7,24-15.4,36.2c-2.4,6.2-4.3,13-8.8,17.8
		c-7,7.6-18.4,8.9-28.8,8.8c-10.9-0.1-21.8-1.1-32.5-3.1C1151.1,1639.8,1120.5,1625.8,1092.7,1630.8z"/>
	<path class="st7" d="M1264.1,1628.5c-35.7-4.1-71.1-9.8-106.3-17.2c-17.3-3.6-34.7-7.7-52.3-7c-11.5,0.5-23.8,2.8-33.8-2.9
		c9.8,33.4,10.4,68.6-1.3,101.4c-7,19.5-17.5,37.7-22.7,57.8c-10.6,42.1,4,87.9-9.3,129.2c-1.4,5.4-4.2,10.3-8,14.4
		c-4.1,3.7-9.6,5.7-13.4,9.7c-5.5,5.9-5.9,14.9-5.9,23l-0.2,71.7c-0.2,45.7,0.4,94.1,24.6,132.8c27.5,44.3,85.4,67.2,135.8,53.7
		c13.4-3.4,25.9-9.6,36.9-18c17.5-13.9,28.6-34,39.6-53.6c13-23.4,26-47.4,30.2-73.8c3-18.7,1.3-37.7-0.8-56.5
		c-11.8-104.1-37.3-207.4-31.8-312C1246,1662.2,1252.6,1643.8,1264.1,1628.5z"/>
	<path class="st5" d="M1413.2,2060.7c-18.1,1-36.3,2.1-54.3,0c-13-1.6-25.7-4.8-38.6-7c-71.4-11.5-144.2,8.7-199.4,55.4
		c-10,8.5-20.1,21.6-14.6,33.6c5.9,12.9,24.1,12.5,38.1,10.1c-15.1,7.2-28.4,17.6-39.1,30.5c-3.9,4.8-7.6,10.4-6.8,16.6
		c1.6,12.9,19.1,15.2,32,14.1c-4.2,4.5-1.4,12.6,4,15.6c5.4,3.1,12,2.4,18.1,1.3c13.4-2.5,26.4-6.9,38.4-13.3
		c-2.4,6.4,1.8,13.9,7.8,17s13.3,2.9,20.1,1.8c31.8-5.2,58.4-27.3,89.4-36c49.6-13.9,101.5,8.3,153.1,9.8
		c16.1,0.5,32.7-1.1,47.4-7.8c18-8.2,32.6-23.6,51.7-29.1c21.2-6,45.5,0.9,64.8-9.5c14.1-7.6,1.4-66-2.2-77.2
		c-6.6-20.6-13.2-34.2-35.2-36.3C1532.4,2045,1469.2,2057.5,1413.2,2060.7z"/>
	<path class="st6" d="M1551.8,2044.8c0,0,84.1,71.2,35.6,148.8l93.7-32.4v-67.9c0-3.2-35.6-51.7-35.6-51.7l-42.1-6.5L1551.8,2044.8z
		"/>
	<path class="st10" d="M671.5,2040.4H703c36,0,65.1,29.1,65.1,65.1v96.6l0,0H606.4l0,0v-96.6
		C606.4,2069.5,635.5,2040.4,671.5,2040.4C671.5,2040.4,671.5,2040.4,671.5,2040.4z"/>
	<path class="st4" d="M671.5,2040.4H703c36,0,65.1,29.1,65.1,65.1v96.6l0,0H606.4l0,0v-96.6C606.4,2069.5,635.5,2040.4,671.5,2040.4
		C671.5,2040.4,671.5,2040.4,671.5,2040.4z"/>
	<circle class="st10" cx="680.8" cy="2063" r="12.9"/>
	<circle class="st10" cx="680.8" cy="2046.8" r="12.9"/>
	<circle class="st10" cx="680.8" cy="2030.7" r="12.9"/>
	<circle class="st10" cx="680.8" cy="2014.5" r="12.9"/>
	<circle class="st10" cx="680.8" cy="1998.3" r="12.9"/>
	<circle class="st10" cx="680.8" cy="1982.2" r="12.9"/>
	<circle class="st10" cx="680.8" cy="1966" r="12.9"/>
	<circle class="st10" cx="700.2" cy="1972.4" r="12.9"/>
	<circle class="st10" cx="713.1" cy="1966" r="12.9"/>
	<circle class="st10" cx="726.1" cy="1959.5" r="12.9"/>
	<circle class="st10" cx="680.8" cy="1949.8" r="12.9"/>
	<circle class="st10" cx="680.8" cy="1933.6" r="12.9"/>
	<circle class="st10" cx="680.8" cy="1917.5" r="12.9"/>
	<circle class="st10" cx="680.8" cy="1901.3" r="12.9"/>
	<path class="st7" d="M734.5,1859.5c-3.2,0.5-6.5,0.8-9.7,1c3-2.6,5.8-5.5,8.3-8.5c-1.8-5.4-4.4-10.6-7.8-15.2
		c-3.2,1.8-6.8,2.9-10.4,3.3c-3.2,0.5-6.4,0.8-9.7,1c4.2-3.5,8.2-8.7,12.4-13c-22.5-20.4-57.2-18.7-77.6,3.8
		c-20.4,22.5-18.7,57.2,3.8,77.6s57.2,18.7,77.6-3.8c9.2-10.1,14.2-23.3,14.2-37c0-3.2-0.3-6.3-0.8-9.5L734.5,1859.5z"/>
	<path class="st7" d="M777.7,1923.8c-3.3,2-7,3.3-10.9,3.6c-3.2,0.5-6.4,0.8-9.7,1c3.4-3.1,6.6-6.4,9.6-9.9
		c-17.3-4.5-35,5.9-39.5,23.2c-4.5,17.3,5.9,35,23.2,39.5c17.3,4.5,35-5.9,39.5-23.2C793.2,1945.2,788.4,1931.6,777.7,1923.8
		L777.7,1923.8z"/>
	<circle class="st10" cx="661.4" cy="1972.4" r="12.9"/>
	<circle class="st10" cx="648.4" cy="1966" r="12.9"/>
	<circle class="st10" cx="635.5" cy="1959.5" r="12.9"/>
	<path class="st7" d="M583.9,1923.8c3.3,2,7,3.3,10.9,3.6c3.2,0.5,6.4,0.8,9.7,1c-3.4-3.1-6.6-6.4-9.6-9.9
		c17.3-4.5,35,5.9,39.5,23.2c4.5,17.3-5.9,35-23.2,39.5c-17.3,4.5-35-5.9-39.5-23.2C568.3,1945.2,573.2,1931.6,583.9,1923.8
		L583.9,1923.8z"/>
	<path class="st10" d="M671.5,2050H703c36,0,65.1,29.1,65.1,65.1l0,0v85.6c0,6.1-4.9,11-11,11H617.3c-6.1,0-11-4.9-11-11V2115
		C606.3,2079.1,635.4,2050,671.5,2050C671.4,2050,671.4,2050,671.5,2050z"/>
	<g class="st8">
		<path d="M735.4,1863.1c-1.3,1.4-2.7,2.7-4.2,4c1.5,0,2.9-0.2,4.4-0.4C735.6,1865.5,735.5,1864.3,735.4,1863.1z"/>
		<path d="M711.8,1847.6c3.3-0.2,6.5-0.5,9.7-1c2.9-0.4,5.7-1.1,8.4-2.3c-1.3-2.6-2.8-5.1-4.5-7.5c-1.6,1-3.4,1.7-5.2,2.2
			C717.6,1842.1,714.8,1845,711.8,1847.6z"/>
		<path d="M632.3,1875.4c-0.1-30.3,24.5-54.9,54.8-55c10.6,0,20.9,3,29.8,8.8l0.8-0.9c-22.7-20.2-57.4-18.1-77.6,4.5
			c-20.2,22.7-18.1,57.4,4.5,77.6c0.2,0.2,0.4,0.4,0.6,0.5C636.9,1901,632.2,1888.4,632.3,1875.4z"/>
	</g>
	<g class="st8">
		<path d="M757.1,1934.9c3.2-0.2,6.5-0.5,9.7-1c3.9-0.4,7.6-1.6,10.9-3.6c7.4,5.4,12.1,13.8,13,22.9c0.1-1.1,0.2-2.3,0.2-3.4
			c0-10.3-4.8-19.9-13-26c-3.3,2-7,3.3-10.9,3.6l-2.6,0.3C762.1,1930.3,759.7,1932.7,757.1,1934.9z"/>
		<path d="M758.4,1923.9c1.1,0,2.2,0.1,3.2,0.2c1.7-1.8,3.4-3.7,5.1-5.6c-17.2-4.6-34.9,5.6-39.5,22.9c-0.7,2.7-1.1,5.6-1.1,8.4
			c0,1.1,0,2.2,0.2,3.2C727.9,1936.5,741.8,1923.9,758.4,1923.9z"/>
	</g>
	<g class="st8">
		<path d="M604.4,1934.9c-3.2-0.2-6.5-0.5-9.7-1c-3.9-0.4-7.6-1.6-10.9-3.6c-7.4,5.4-12.1,13.8-13,22.9c-0.1-1.1-0.2-2.3-0.2-3.4
			c0-10.3,4.8-19.9,13-26c3.3,2,7,3.3,10.9,3.6l2.6,0.3C599.4,1930.3,601.8,1932.7,604.4,1934.9z"/>
		<path d="M603.1,1923.9c-1.1,0-2.2,0.1-3.3,0.2c-1.7-1.8-3.3-3.7-5-5.6c17.2-4.6,34.9,5.6,39.5,22.9c0.7,2.7,1.1,5.6,1.1,8.4
			c0,1.1,0,2.2-0.2,3.2C633.7,1936.5,619.8,1923.9,603.1,1923.9z"/>
	</g>
	<path class="st7" d="M515.4,2243H261c-6,0-10.8-4.8-10.8-10.8l0,0v-120.4c0-6,4.8-10.8,10.8-10.8c1.6,0,3.2,0.4,4.6,1
		c73.1,34.7,151.8,46.6,244.8,0.5c5.4-2.6,11.9-0.4,14.5,4.9c0.7,1.5,1.1,3.1,1.1,4.7V2232C526.1,2238,521.4,2242.9,515.4,2243
		C515.4,2243,515.4,2243,515.4,2243z"/>
	<path class="st4" d="M515.4,2243H261c-6,0-10.8-4.8-10.8-10.8l0,0v-120.4c0-6,4.8-10.8,10.8-10.8c1.6,0,3.2,0.4,4.6,1
		c73.1,34.7,151.8,46.6,244.8,0.5c5.4-2.6,11.9-0.4,14.5,4.9c0.7,1.5,1.1,3.1,1.1,4.7V2232C526.1,2238,521.4,2242.9,515.4,2243
		C515.4,2243,515.4,2243,515.4,2243z"/>
	<ellipse class="st10" cx="386.4" cy="2131.7" rx="15" ry="19.7"/>
	<ellipse class="st10" cx="386.4" cy="2107.7" rx="15" ry="19.7"/>
	<ellipse class="st10" cx="386.4" cy="2083.5" rx="15" ry="19.7"/>
	<ellipse class="st10" cx="386.4" cy="2059.5" rx="15" ry="19.7"/>
	<ellipse class="st10" cx="386.4" cy="2035.3" rx="15" ry="19.7"/>
	<ellipse class="st10" cx="386.4" cy="2011.2" rx="15" ry="19.7"/>
	<ellipse class="st10" cx="386.4" cy="1987.2" rx="15" ry="19.7"/>
	<path class="st7" d="M442.9,1822.2c2-2.6,3.9-5.4,5.6-8.3l-39.6-6.5l42.8,0.3c8.3-18.1,8.8-38.8,1.4-57.3l-57.4,29.8l53-39.1
		c-19.9-34.5-64.1-46.3-98.6-26.3s-46.3,64.1-26.3,98.6c1.7,3,3.6,5.8,5.7,8.5c-3.2,4.1-6,8.5-8.2,13.1l51.3,27l-54.7-18.5
		c-7.8,23.1-3.4,48.5,11.6,67.7c-24.6,31.3-19.2,76.7,12.1,101.3c31.3,24.6,76.7,19.2,101.3-12.1c20.6-26.2,20.6-63,0-89.2
		c20.6-26.2,20.6-63,0-89.2L442.9,1822.2z"/>
	<path class="st4" d="M314,1866.8c0,16.2,5.4,31.9,15.4,44.6c-24.6,31.3-19.2,76.7,12.1,101.3s76.7,19.2,101.3-12.1
		c20.6-26.2,20.6-63,0-89.2C452.5,1899.2,314,1858.7,314,1866.8z"/>
	<path class="st7" d="M515.4,2249.4H261c-6,0-10.8-4.8-10.8-10.8l0,0v-126.8c0-6,4.8-10.8,10.8-10.8c1.6,0,3.2,0.4,4.6,1
		c73.1,34.7,131,75.1,244.8,0.5c6.7-4.4,15.6,1.6,15.6,9.7v126.3C526.1,2244.4,521.3,2249.3,515.4,2249.4z"/>
	<polygon class="st11" points="2403.1,2213.5 2027.8,2263.2 2009,2265.6 1825.5,2167.6 1825.5,2144.7 2398.9,2082.1 	"/>
	<polygon class="st12" points="1931.8,2178 2338.4,2130.1 2334.2,2205.2 2017.6,2228.4 	"/>
	<path class="st3" d="M2027.8,2238.5v24.6l-18.8,2.6l-183.5-98.1v-22.9l175.2,93.7C2000.6,2238.4,2023.6,2240.6,2027.8,2238.5z"/>
	<path class="st10" d="M2099.8,1847.5l-84.3,390.7c-2.9,13.5,5.6,26.7,19.1,29.7c2.8,0.6,5.7,0.7,8.6,0.4l533.1-70.6
		c9.5-1.2,17.4-7.8,20.4-16.9l115-346.8c4.3-13.1-2.8-27.2-15.9-31.6c-2.9-1-5.9-1.4-9-1.2L2123,1828
		C2111.8,1828.5,2102.2,1836.5,2099.8,1847.5z"/>
	
		<ellipse transform="matrix(0.1045 -0.9945 0.9945 0.1045 150.3961 4147.3374)" class="st6" cx="2378.2" cy="1990.2" rx="22.7" ry="14.6"/>
</g>
</svg>
